<?xml version="1.0" encoding="UTF-8"?>
<svg version="1.1" xmlns="http://www.w3.org/2000/svg" width="819" height="819">
<path d="M0 0 C1.25968597 0.00182281 2.51937195 0.00364563 3.81723022 0.00552368 C22.06639007 0.05000591 39.94903803 0.42693605 58 3.3125 C59.12857422 3.48410645 60.25714844 3.65571289 61.41992188 3.83251953 C117.16883895 12.45372437 171.33381761 32.00384107 219 62.3125 C219.9895166 62.93970947 219.9895166 62.93970947 220.99902344 63.57958984 C238.79676766 74.94909997 255.83056078 87.72677798 271.41796875 101.9765625 C272.82446183 103.24900254 274.23708262 104.5152703 275.6784668 105.74804688 C281.34459804 110.60410918 286.66194529 115.78828208 291.93579102 121.06298828 C293.42641615 122.55143237 294.92487017 124.03167277 296.42382812 125.51171875 C302.00951668 131.06569104 307.18077119 136.74886893 312.07763672 142.92871094 C313.86758052 145.14829581 315.73400802 147.2369669 317.6875 149.3125 C365.86734806 202.97388766 395.19423938 277.34653922 406.25 347.6875 C406.40114258 348.6472876 406.55228516 349.6070752 406.70800781 350.59594727 C407.18599221 353.83043425 407.60423862 357.06686333 408 360.3125 C408.08720306 361.02168579 408.17440613 361.73087158 408.26425171 362.46154785 C410.12481357 378.0736528 410.35964539 393.60352796 410.3125 409.3125 C410.30976578 411.20202896 410.30976578 411.20202896 410.30697632 413.12973022 C410.26249409 431.37889007 409.88556395 449.26153803 407 467.3125 C406.74259033 469.00536133 406.74259033 469.00536133 406.47998047 470.73242188 C397.85877563 526.48133895 378.30865893 580.64631761 348 628.3125 C347.58186035 628.97217773 347.1637207 629.63185547 346.73291016 630.31152344 C335.36340003 648.10926766 322.58572202 665.14306078 308.3359375 680.73046875 C307.06349746 682.13696183 305.7972297 683.54958262 304.56445312 684.9909668 C299.70839082 690.65709804 294.52421792 695.97444529 289.24951172 701.24829102 C287.76106763 702.73891615 286.28082723 704.23737017 284.80078125 705.73632812 C279.24680896 711.32201668 273.56363107 716.49327119 267.38378906 721.39013672 C265.16420419 723.18008052 263.0755331 725.04650802 261 727 C207.33861234 775.17984806 132.96596078 804.50673938 62.625 815.5625 C61.6652124 815.71364258 60.7054248 815.86478516 59.71655273 816.02050781 C56.48206575 816.49849221 53.24563667 816.91673862 50 817.3125 C49.29081421 817.39970306 48.58162842 817.48690613 47.85095215 817.57675171 C32.2388472 819.43731357 16.70897204 819.67214539 1 819.625 C-0.25968597 819.62317719 -1.51937195 819.62135437 -2.81723022 819.61947632 C-21.06639007 819.57499409 -38.94903803 819.19806395 -57 816.3125 C-58.69286133 816.05509033 -58.69286133 816.05509033 -60.41992188 815.79248047 C-116.16883895 807.17127563 -170.33381761 787.62115893 -218 757.3125 C-218.65967773 756.89436035 -219.31935547 756.4762207 -219.99902344 756.04541016 C-237.79676766 744.67590003 -254.83056078 731.89822202 -270.41796875 717.6484375 C-271.82446183 716.37599746 -273.23708262 715.1097297 -274.6784668 713.87695312 C-280.34459804 709.02089082 -285.66194529 703.83671792 -290.93579102 698.56201172 C-292.42641615 697.07356763 -293.92487017 695.59332723 -295.42382812 694.11328125 C-301.00951668 688.55930896 -306.18077119 682.87613107 -311.07763672 676.69628906 C-312.86758052 674.47670419 -314.73400802 672.3880331 -316.6875 670.3125 C-364.86734806 616.65111234 -394.19423938 542.27846078 -405.25 471.9375 C-405.47671387 470.4978186 -405.47671387 470.4978186 -405.70800781 469.02905273 C-406.18599221 465.79456575 -406.60423862 462.55813667 -407 459.3125 C-407.08720306 458.60331421 -407.17440613 457.89412842 -407.26425171 457.16345215 C-409.12481357 441.5513472 -409.35964539 426.02147204 -409.3125 410.3125 C-409.31067719 409.05281403 -409.30885437 407.79312805 -409.30697632 406.49526978 C-409.26249409 388.24610993 -408.88556395 370.36346197 -406 352.3125 C-405.82839355 351.18392578 -405.65678711 350.05535156 -405.47998047 348.89257812 C-396.85877563 293.14366105 -377.30865893 238.97868239 -347 191.3125 C-346.58186035 190.65282227 -346.1637207 189.99314453 -345.73291016 189.31347656 C-334.36340003 171.51573234 -321.58572202 154.48193922 -307.3359375 138.89453125 C-306.06349746 137.48803817 -304.7972297 136.07541738 -303.56445312 134.6340332 C-298.70839082 128.96790196 -293.52421792 123.65055471 -288.24951172 118.37670898 C-286.76106763 116.88608385 -285.28082723 115.38762983 -283.80078125 113.88867188 C-278.24680896 108.30298332 -272.56363107 103.13172881 -266.38378906 98.23486328 C-264.16420419 96.44491948 -262.0755331 94.57849198 -260 92.625 C-206.33861234 44.44515194 -131.96596078 15.11826062 -61.625 4.0625 C-60.1853186 3.83578613 -60.1853186 3.83578613 -58.71655273 3.60449219 C-55.48206575 3.12650779 -52.24563667 2.70826138 -49 2.3125 C-48.29081421 2.22529694 -47.58162842 2.13809387 -46.85095215 2.04824829 C-31.2388472 0.18768643 -15.70897204 -0.04714539 0 0 Z " fill="#EEF8F4" transform="translate(409,-0.3125)"/>
<path d="M0 0 C15.97896367 11.85073915 27.37280582 29.27003807 30.66455078 49.02050781 C33.36835147 71.26220736 27.30892701 92.51640238 14.02783203 110.54785156 C11.44523979 113.82649562 8.88378852 116.97402191 5.87548828 119.87207031 C3.88348954 121.53180435 3.88348954 121.53180435 4.11376953 123.71582031 C4.69642578 123.92674316 5.27908203 124.13766602 5.87939453 124.35498047 C8.6245227 125.34933409 11.36914443 126.34507901 14.11376953 127.34082031 C15.02900391 127.67210937 15.94423828 128.00339844 16.88720703 128.34472656 C22.54886873 130.39998732 28.19551284 132.49238728 33.83251953 134.61425781 C42.06955634 137.71317648 50.33826569 140.72143306 58.61376953 143.71582031 C61.37456462 144.71477938 64.13504229 145.71460372 66.89501953 146.71582031 C67.57163635 146.96119034 68.24825317 147.20656036 68.94537354 147.45936584 C73.8329275 149.23701899 78.70171801 151.06153563 83.56689453 152.89941406 C89.80793891 155.25384838 96.0837411 157.4227098 102.44189453 159.43652344 C106.65495857 160.80344587 110.72393922 162.36559895 114.80126953 164.09863281 C120.23511149 166.39792913 125.73560398 168.3825515 131.31274414 170.30395508 C166.66282671 182.49238162 191.77860165 200.31086572 208.41845703 234.38769531 C210.57122206 239.36074941 211.95099661 244.5395764 213.30126953 249.77832031 C213.46860596 250.42736328 213.63594238 251.07640625 213.80834961 251.74511719 C215.73416503 259.65099175 216.2624847 267.53823266 216.26766968 275.65371704 C216.27205193 276.5068084 216.27643419 277.35989976 216.28094923 278.23884237 C216.29421221 281.07313042 216.30048779 283.90738748 216.30664062 286.74169922 C216.31455179 288.7845015 216.32282135 290.82730243 216.3314209 292.87010193 C216.35753482 299.56084885 216.37294302 306.25160168 216.38720703 312.94238281 C216.39257204 315.25643288 216.39794956 317.57048292 216.40333939 319.88453293 C216.42495704 329.52177452 216.44368754 339.15901452 216.45496178 348.79627419 C216.47116125 362.54759502 216.50425468 376.2986316 216.56136262 390.04984534 C216.6002562 399.75051821 216.6196176 409.45111569 216.62488234 419.15186441 C216.62851073 424.92896491 216.64026083 430.70576152 216.67298508 436.48277664 C216.70340743 441.93141598 216.70925777 447.37957298 216.69760132 452.8282795 C216.69738337 454.80854036 216.70545118 456.78882589 216.72325516 458.76900673 C216.87936017 477.15916376 214.58537732 496.13361074 206.11376953 512.71582031 C205.57751953 513.79992187 205.04126953 514.88402344 204.48876953 516.00097656 C200.97689014 522.82875993 197.08676899 528.87504914 192.11376953 534.71582031 C191.54787109 535.40289063 190.98197266 536.08996094 190.39892578 536.79785156 C174.17202184 556.04200294 149.16498186 569.18856203 124.11376953 571.71582031 C114.17287762 572.24444569 104.20264338 572.12338137 94.25049448 572.09333527 C90.1960037 572.08441136 86.14154202 572.09295999 82.08705139 572.09919739 C74.16630127 572.10863862 66.24564288 572.10212763 58.32489963 572.08993445 C49.09007507 572.07625225 39.85527187 572.07795765 30.62043975 572.08006778 C14.14130958 572.08325056 -2.33777722 572.07162883 -18.81689453 572.05200195 C-34.79054076 572.03298225 -50.76413622 572.02592015 -66.73779297 572.03149414 C-84.16123562 572.03755611 -101.58465601 572.03736863 -119.00809681 572.02600831 C-120.86668658 572.02480109 -122.72527635 572.0235951 -124.58386612 572.02239037 C-125.49818791 572.02178683 -126.41250971 572.02118329 -127.35453822 572.02056146 C-133.78560531 572.01668857 -140.21666409 572.01707342 -146.64773178 572.01897621 C-154.48449625 572.02110128 -162.32121635 572.01584997 -170.15796833 572.00136266 C-174.15316377 571.99413542 -178.14829469 571.99002744 -182.14349556 571.99460602 C-185.80480156 571.99869985 -189.46597468 571.99346781 -193.12726058 571.98097994 C-195.06962495 571.97669277 -197.0120034 571.98212297 -198.9543637 571.98796922 C-205.84391917 571.95362671 -212.19807785 571.38691394 -218.88623047 569.71582031 C-220.49884766 569.32523438 -220.49884766 569.32523438 -222.14404297 568.92675781 C-249.74805501 560.8787216 -273.31225893 542.27664393 -287.26123047 517.09472656 C-289.25383288 512.95145472 -290.99700625 508.75991269 -292.63623047 504.46582031 C-292.91821289 503.74048096 -293.20019531 503.0151416 -293.49072266 502.26782227 C-298.8099689 487.59223161 -299.32242717 472.97746389 -299.25854492 457.56884766 C-299.26097857 455.49070555 -299.26470341 453.41256462 -299.26960754 451.33442688 C-299.2789406 445.73744172 -299.26965603 440.14063376 -299.25627542 434.54366255 C-299.24488011 428.66058833 -299.24907455 422.7775218 -299.25102234 416.8944397 C-299.25190263 407.02106871 -299.24087924 397.14776672 -299.22241211 387.27441406 C-299.20123688 375.8885921 -299.19773875 364.50287104 -299.20397407 353.11703336 C-299.20968447 342.12329308 -299.20400308 331.12958802 -299.19280052 320.13585281 C-299.18817791 315.47513802 -299.18727048 310.81444494 -299.18938637 306.15372849 C-299.19128119 300.65915784 -299.18307423 295.16468872 -299.16732597 289.67014122 C-299.16311315 287.66354098 -299.16221212 285.65693038 -299.16501617 283.65032768 C-299.19840563 255.46437308 -294.19208955 229.3458799 -274.88623047 207.71582031 C-273.87496094 206.49185547 -273.87496094 206.49185547 -272.84326172 205.24316406 C-259.82227761 189.89785128 -242.55682284 180.53614553 -223.88623047 173.71582031 C-222.92620117 173.36342285 -221.96617187 173.01102539 -220.97705078 172.64794922 C-210.56296759 168.83670851 -200.13979405 165.08063084 -189.59106445 161.65673828 C-186.87518408 160.71197766 -184.26591342 159.62720929 -181.63623047 158.46582031 C-174.5408969 155.42496307 -167.21151308 153.1044416 -159.86572266 150.74609375 C-153.7628537 148.7638115 -147.86566834 146.50940687 -141.96240234 143.99658203 C-136.58321505 141.75696167 -131.10736244 139.78018536 -125.63623047 137.77832031 C-123.40171853 136.95707823 -121.16734507 136.13545927 -118.93310547 135.31347656 C-117.20120972 134.67696167 -117.20120972 134.67696167 -115.43432617 134.02758789 C-111.88035255 132.71364719 -108.33407557 131.3805646 -104.78857422 130.04394531 C-98.58114905 127.70451139 -92.3530323 125.4248575 -86.11837769 123.15904236 C-81.23061601 121.37906457 -76.34882133 119.58303342 -71.4675293 117.78540039 C-68.95265012 116.86082805 -66.43469405 115.94544455 -63.91381836 115.03735352 C-42.63460055 107.34831728 -25.32071103 100.63554091 -14.89404297 79.23535156 C-11.18241461 69.95628067 -10.11495657 59.42258555 -12.69091797 49.66894531 C-16.05071735 42.20787358 -21.94931181 36.74777833 -29.15576172 33.02832031 C-36.61651903 30.40338371 -45.46481944 30.25309787 -53.00341797 32.74707031 C-58.97107254 36.0120485 -63.12897058 40.50045856 -65.88623047 46.71582031 C-66.79219265 50.04433335 -67.50518032 53.3731399 -68.18310547 56.75488281 C-69.59999568 62.72156494 -72.8266586 66.26050294 -77.88623047 69.71582031 C-84.12264594 72.64504576 -90.7759471 72.81017927 -97.26123047 70.52832031 C-102.84556261 66.67247193 -106.91804178 62.2658676 -108.88623047 55.71582031 C-110.81007191 39.5769282 -105.23676403 25.01573637 -96.00732422 12.08300781 C-72.55123162 -16.02512821 -29.8157458 -20.29909694 0 0 Z " fill="#EDF8F4" transform="translate(451.88623046875,47.2841796875)"/>
<path d="M0 0 C15.97896367 11.85073915 27.37280582 29.27003807 30.66455078 49.02050781 C33.36835147 71.26220736 27.30892701 92.51640238 14.02783203 110.54785156 C11.44523979 113.82649562 8.88378852 116.97402191 5.87548828 119.87207031 C3.88348954 121.53180435 3.88348954 121.53180435 4.11376953 123.71582031 C4.69642578 123.92674316 5.27908203 124.13766602 5.87939453 124.35498047 C8.6245227 125.34933409 11.36914443 126.34507901 14.11376953 127.34082031 C15.02900391 127.67210937 15.94423828 128.00339844 16.88720703 128.34472656 C22.54886873 130.39998732 28.19551284 132.49238728 33.83251953 134.61425781 C42.06955634 137.71317648 50.33826569 140.72143306 58.61376953 143.71582031 C61.37456462 144.71477938 64.13504229 145.71460372 66.89501953 146.71582031 C67.57163635 146.96119034 68.24825317 147.20656036 68.94537354 147.45936584 C73.8329275 149.23701899 78.70171801 151.06153563 83.56689453 152.89941406 C89.80793891 155.25384838 96.0837411 157.4227098 102.44189453 159.43652344 C106.65495857 160.80344587 110.72393922 162.36559895 114.80126953 164.09863281 C120.23511149 166.39792913 125.73560398 168.3825515 131.31274414 170.30395508 C166.66282671 182.49238162 191.77860165 200.31086572 208.41845703 234.38769531 C210.57122206 239.36074941 211.95099661 244.5395764 213.30126953 249.77832031 C213.46860596 250.42736328 213.63594238 251.07640625 213.80834961 251.74511719 C215.73416503 259.65099175 216.2624847 267.53823266 216.26766968 275.65371704 C216.27205193 276.5068084 216.27643419 277.35989976 216.28094923 278.23884237 C216.29421221 281.07313042 216.30048779 283.90738748 216.30664062 286.74169922 C216.31455179 288.7845015 216.32282135 290.82730243 216.3314209 292.87010193 C216.35753482 299.56084885 216.37294302 306.25160168 216.38720703 312.94238281 C216.39257204 315.25643288 216.39794956 317.57048292 216.40333939 319.88453293 C216.42495704 329.52177452 216.44368754 339.15901452 216.45496178 348.79627419 C216.47116125 362.54759502 216.50425468 376.2986316 216.56136262 390.04984534 C216.6002562 399.75051821 216.6196176 409.45111569 216.62488234 419.15186441 C216.62851073 424.92896491 216.64026083 430.70576152 216.67298508 436.48277664 C216.70340743 441.93141598 216.70925777 447.37957298 216.69760132 452.8282795 C216.69738337 454.80854036 216.70545118 456.78882589 216.72325516 458.76900673 C216.87936017 477.15916376 214.58537732 496.13361074 206.11376953 512.71582031 C205.57751953 513.79992187 205.04126953 514.88402344 204.48876953 516.00097656 C200.97689014 522.82875993 197.08676899 528.87504914 192.11376953 534.71582031 C191.54787109 535.40289063 190.98197266 536.08996094 190.39892578 536.79785156 C174.17202184 556.04200294 149.16498186 569.18856203 124.11376953 571.71582031 C114.17287762 572.24444569 104.20264338 572.12338137 94.25049448 572.09333527 C90.1960037 572.08441136 86.14154202 572.09295999 82.08705139 572.09919739 C74.16630127 572.10863862 66.24564288 572.10212763 58.32489963 572.08993445 C49.09007507 572.07625225 39.85527187 572.07795765 30.62043975 572.08006778 C14.14130958 572.08325056 -2.33777722 572.07162883 -18.81689453 572.05200195 C-34.79054076 572.03298225 -50.76413622 572.02592015 -66.73779297 572.03149414 C-84.16123562 572.03755611 -101.58465601 572.03736863 -119.00809681 572.02600831 C-120.86668658 572.02480109 -122.72527635 572.0235951 -124.58386612 572.02239037 C-125.49818791 572.02178683 -126.41250971 572.02118329 -127.35453822 572.02056146 C-133.78560531 572.01668857 -140.21666409 572.01707342 -146.64773178 572.01897621 C-154.48449625 572.02110128 -162.32121635 572.01584997 -170.15796833 572.00136266 C-174.15316377 571.99413542 -178.14829469 571.99002744 -182.14349556 571.99460602 C-185.80480156 571.99869985 -189.46597468 571.99346781 -193.12726058 571.98097994 C-195.06962495 571.97669277 -197.0120034 571.98212297 -198.9543637 571.98796922 C-205.84391917 571.95362671 -212.19807785 571.38691394 -218.88623047 569.71582031 C-220.49884766 569.32523438 -220.49884766 569.32523438 -222.14404297 568.92675781 C-249.74805501 560.8787216 -273.31225893 542.27664393 -287.26123047 517.09472656 C-289.25383288 512.95145472 -290.99700625 508.75991269 -292.63623047 504.46582031 C-292.91821289 503.74048096 -293.20019531 503.0151416 -293.49072266 502.26782227 C-298.8099689 487.59223161 -299.32242717 472.97746389 -299.25854492 457.56884766 C-299.26097857 455.49070555 -299.26470341 453.41256462 -299.26960754 451.33442688 C-299.2789406 445.73744172 -299.26965603 440.14063376 -299.25627542 434.54366255 C-299.24488011 428.66058833 -299.24907455 422.7775218 -299.25102234 416.8944397 C-299.25190263 407.02106871 -299.24087924 397.14776672 -299.22241211 387.27441406 C-299.20123688 375.8885921 -299.19773875 364.50287104 -299.20397407 353.11703336 C-299.20968447 342.12329308 -299.20400308 331.12958802 -299.19280052 320.13585281 C-299.18817791 315.47513802 -299.18727048 310.81444494 -299.18938637 306.15372849 C-299.19128119 300.65915784 -299.18307423 295.16468872 -299.16732597 289.67014122 C-299.16311315 287.66354098 -299.16221212 285.65693038 -299.16501617 283.65032768 C-299.19840563 255.46437308 -294.19208955 229.3458799 -274.88623047 207.71582031 C-273.87496094 206.49185547 -273.87496094 206.49185547 -272.84326172 205.24316406 C-259.82227761 189.89785128 -242.55682284 180.53614553 -223.88623047 173.71582031 C-222.92620117 173.36342285 -221.96617187 173.01102539 -220.97705078 172.64794922 C-210.56296759 168.83670851 -200.13979405 165.08063084 -189.59106445 161.65673828 C-186.87518408 160.71197766 -184.26591342 159.62720929 -181.63623047 158.46582031 C-174.5408969 155.42496307 -167.21151308 153.1044416 -159.86572266 150.74609375 C-153.7628537 148.7638115 -147.86566834 146.50940687 -141.96240234 143.99658203 C-136.58321505 141.75696167 -131.10736244 139.78018536 -125.63623047 137.77832031 C-123.40171853 136.95707823 -121.16734507 136.13545927 -118.93310547 135.31347656 C-117.20120972 134.67696167 -117.20120972 134.67696167 -115.43432617 134.02758789 C-111.88035255 132.71364719 -108.33407557 131.3805646 -104.78857422 130.04394531 C-98.58114905 127.70451139 -92.3530323 125.4248575 -86.11837769 123.15904236 C-81.23061601 121.37906457 -76.34882133 119.58303342 -71.4675293 117.78540039 C-68.95265012 116.86082805 -66.43469405 115.94544455 -63.91381836 115.03735352 C-42.63460055 107.34831728 -25.32071103 100.63554091 -14.89404297 79.23535156 C-11.18241461 69.95628067 -10.11495657 59.42258555 -12.69091797 49.66894531 C-16.05071735 42.20787358 -21.94931181 36.74777833 -29.15576172 33.02832031 C-36.61651903 30.40338371 -45.46481944 30.25309787 -53.00341797 32.74707031 C-58.97107254 36.0120485 -63.12897058 40.50045856 -65.88623047 46.71582031 C-66.79219265 50.04433335 -67.50518032 53.3731399 -68.18310547 56.75488281 C-69.59999568 62.72156494 -72.8266586 66.26050294 -77.88623047 69.71582031 C-84.12264594 72.64504576 -90.7759471 72.81017927 -97.26123047 70.52832031 C-102.84556261 66.67247193 -106.91804178 62.2658676 -108.88623047 55.71582031 C-110.81007191 39.5769282 -105.23676403 25.01573637 -96.00732422 12.08300781 C-72.55123162 -16.02512821 -29.8157458 -20.29909694 0 0 Z M-247.70352459 238.46470928 C-248.4776319 239.85686871 -249.21131515 241.27296228 -249.88623047 242.71582031 C-250.4503234 243.56185538 -251.01441633 244.40789045 -251.59560299 245.27956295 C-258.35288123 258.03496227 -258.59712556 270.96838091 -258.4855957 285.03393555 C-258.48746375 287.13004344 -258.49150896 289.22615033 -258.49754333 291.32225037 C-258.50744534 296.96654953 -258.48647078 302.61033952 -258.45906329 308.254565 C-258.43508732 314.1813417 -258.43817715 320.10811082 -258.4377594 326.03492737 C-258.43314496 335.97641531 -258.40958917 345.91771054 -258.37329102 355.85913086 C-258.33148503 367.33935184 -258.3139707 378.81939983 -258.31067127 390.29969257 C-258.30706831 402.55349288 -258.28819876 414.80723138 -258.263551 427.06100583 C-258.25733444 430.58112631 -258.2536907 434.10124209 -258.25051689 437.6213665 C-258.2446028 443.15451444 -258.2282521 448.68753977 -258.20391273 454.22063637 C-258.19649427 456.24706957 -258.1924022 458.27351818 -258.19193268 460.2999649 C-258.19066783 463.07241098 -258.17706724 465.84453782 -258.16038513 468.6169281 C-258.16280022 469.41246155 -258.1652153 470.20799499 -258.16770357 471.02763551 C-258.01868572 486.91941102 -250.82049945 501.02417932 -239.67138672 512.09863281 C-225.22818002 525.67079058 -210.31450249 532.20007996 -190.40405273 532.11645508 C-189.22039627 532.12343414 -188.03673981 532.13041321 -186.81721497 532.13760376 C-182.94561445 532.15743115 -179.07428323 532.15707975 -175.20263672 532.15722656 C-172.49647555 532.16716815 -169.79034988 532.18213779 -167.08421326 532.19725037 C-159.26479785 532.23798791 -151.44540534 532.25678671 -143.6259079 532.27342224 C-133.64743166 532.29587116 -123.66902002 532.3293584 -113.69064945 532.38062137 C-109.04232259 532.40368578 -104.39413391 532.41030961 -99.7457428 532.41371155 C-97.31804189 532.4234849 -94.89034289 532.43374769 -92.46264648 532.44458008 C-91.3586853 532.44202713 -90.25472412 532.43947418 -89.11730957 532.43684387 C-88.10125137 532.44367188 -87.08519318 532.45049988 -86.03834534 532.45753479 C-85.15887017 532.45916909 -84.27939501 532.46080339 -83.37326908 532.46248722 C-79.51270917 532.85572904 -76.72320411 533.75847293 -74.14794922 536.70410156 C-73.62845703 537.47109375 -73.10896484 538.23808594 -72.57373047 539.02832031 C-66.7406942 546.8433345 -59.44606661 550.20515863 -49.88623047 551.71582031 C-36.97005765 552.8761083 -23.61614247 551.92746311 -13.19873047 543.27832031 C-11.01032751 541.12293206 -9.30251221 538.95323042 -7.69873047 536.34082031 C-5.88623047 533.71582031 -5.88623047 533.71582031 -3.59021091 533.06038475 C-0.96395702 532.7257249 1.54338029 532.58561248 4.18995667 532.57778931 C5.18918655 532.57233597 6.18841644 532.56688263 7.21792603 532.56126404 C8.84581558 532.55970055 8.84581558 532.55970055 10.5065918 532.55810547 C11.65847488 532.55302475 12.81035797 532.54794403 13.99714661 532.54270935 C16.49780583 532.53201433 18.99847457 532.52339075 21.49914742 532.51659012 C25.46406795 532.50478188 29.42891095 532.48560071 33.39378357 532.46347046 C44.667024 532.40171906 55.94025966 532.3476542 67.21362305 532.31445312 C73.44386502 532.29602454 79.67396629 532.26698422 85.90410465 532.22644842 C89.19422544 532.20551091 92.48413358 532.19163459 95.77432442 532.18764114 C99.45481867 532.18270242 103.13479709 532.15946631 106.81518555 532.13232422 C108.42182068 532.13683342 108.42182068 532.13683342 110.06091309 532.14143372 C128.98353161 531.93543291 145.47757357 524.46499559 158.68798828 511.11425781 C173.0270326 494.60853277 175.57177791 477.15846824 175.50195312 456.08300781 C175.50602432 454.01206181 175.51136926 451.94111798 175.5178833 449.87017822 C175.53149752 444.27516549 175.52628265 438.68031971 175.51674604 433.08530426 C175.50911882 427.21327789 175.51620354 421.34126525 175.52090454 415.46923828 C175.52635319 405.61065114 175.51919386 395.75213156 175.50488281 385.89355469 C175.48855807 374.51683831 175.4938472 363.14028326 175.51036203 351.76357079 C175.52400228 341.97297478 175.52588415 332.18242717 175.51804602 322.39182472 C175.51338347 316.55430077 175.51270554 310.7168525 175.52265549 304.8793335 C175.53135987 299.38971198 175.52524 293.90029726 175.50797272 288.41069794 C175.50402638 286.40326022 175.50510992 284.39580491 175.51176071 282.38837433 C175.552493 268.83853257 174.98739821 256.70801122 168.11376953 244.65332031 C167.59943359 243.6990918 167.59943359 243.6990918 167.07470703 242.72558594 C164.66308498 238.23505838 164.66308498 238.23505838 161.11376953 234.71582031 C158.03498234 234.25618008 158.03498234 234.25618008 154.43635082 234.32433033 C153.75089553 234.31847203 153.06544023 234.31261372 152.35921356 234.30657789 C150.04531414 234.29052281 147.73195676 234.29596665 145.41801453 234.30122375 C143.74915159 234.29419145 142.08029369 234.28586543 140.41144305 234.27635163 C135.81213378 234.25404312 131.21297244 234.25064875 126.61361611 234.25035107 C121.65846325 234.24685874 116.70337697 234.22625335 111.7482605 234.20802307 C100.90747593 234.17155055 90.06673177 234.15763983 79.22589469 234.14818597 C72.46027495 234.1421719 65.6946681 234.13141448 58.92905617 234.1196804 C40.2066829 234.08791723 21.48432112 234.06121563 2.76191998 234.05492878 C1.56315215 234.05452164 0.36438433 234.05411451 -0.87070979 234.05369503 C-3.30103505 234.05288732 -5.7313603 234.0520816 -8.16168556 234.05127785 C-9.97137655 234.05066949 -9.97137655 234.05066949 -11.81762695 234.05004883 C-13.02555557 234.04964685 -14.23348418 234.04924487 -15.4780167 234.04883071 C-35.05777275 234.04133852 -54.63725384 233.9968533 -74.21691046 233.93619142 C-94.30640829 233.8744483 -114.39576899 233.84257055 -134.48536366 233.84110135 C-145.7701176 233.83959823 -157.05453259 233.82527848 -168.33919716 233.77828407 C-177.94710468 233.73844062 -187.55455683 233.72591902 -197.16252724 233.7492697 C-202.06679866 233.76037358 -206.97016352 233.75843529 -211.87433052 233.72180176 C-216.36233859 233.68859182 -220.848745 233.69215636 -225.33673992 233.72526731 C-226.96192758 233.7307417 -228.58722827 233.72263129 -230.21226362 233.69971851 C-240.05282084 233.19941909 -240.05282084 233.19941909 -247.70352459 238.46470928 Z " fill="#1B8884" transform="translate(451.88623046875,47.2841796875)"/>
<path d="M0 0 C1.00804687 -0.03738281 2.01609375 -0.07476562 3.0546875 -0.11328125 C11.26497781 -0.20899707 16.57173169 1.59238788 22.74755859 7.02099609 C28.18857597 12.67839196 31.286021 19.60700924 34.625 26.625 C35.83832811 29.1191935 37.06177894 31.6083795 38.28515625 34.09765625 C38.58710403 34.7145784 38.88905182 35.33150055 39.20014954 35.96711731 C42.03013604 41.73411522 44.99466387 47.41893797 48.0625 53.0625 C48.50754883 53.8987793 48.95259766 54.73505859 49.41113281 55.59667969 C49.82588867 56.35239258 50.24064453 57.10810547 50.66796875 57.88671875 C51.0239917 58.54115967 51.38001465 59.19560059 51.74682617 59.86987305 C52.8936942 61.69758958 52.8936942 61.69758958 55.875 62.375 C56.44943848 61.19583008 57.02387695 60.01666016 57.61572266 58.80175781 C59.77330451 54.37323224 61.93170289 49.94510502 64.09033203 45.51708984 C65.01958685 43.61062074 65.94862832 41.70404763 66.87744141 39.79736328 C69.08763504 35.2603996 71.30064068 30.72487135 73.52099609 26.19287109 C74.93473825 23.30684192 76.33637767 20.41603072 77.71728516 17.51416016 C78.48371338 15.92547119 78.48371338 15.92547119 79.265625 14.3046875 C79.68102539 13.43054199 80.09642578 12.55639648 80.52441406 11.65576172 C83.56372223 6.5232207 88.41394574 2.69387925 93.875 0.375 C97.67699248 -0.04503747 101.48966725 0.0506646 105.3125 0.0625 C106.86807617 0.03833008 106.86807617 0.03833008 108.45507812 0.01367188 C117.74922721 0.00770261 117.74922721 0.00770261 121.875 3.375 C122.7 3.890625 123.525 4.40625 124.375 4.9375 C131.27083288 11.66093706 132.63244112 19.74867563 132.765625 29.01171875 C132.80029877 30.11176239 132.83497253 31.21180603 132.87069702 32.34518433 C132.97788643 35.91740234 133.05193509 39.48943523 133.125 43.0625 C133.19251297 45.56442612 133.26203124 48.06629888 133.33349609 50.56811523 C133.47233132 55.55462377 133.59809263 60.54117928 133.71191406 65.52832031 C133.84445952 71.27809854 134.01493229 77.02551958 134.2109375 82.7734375 C134.52710729 92.30610803 134.73156689 101.83822844 134.875 111.375 C134.90010651 112.99408264 134.90010651 112.99408264 134.92572021 114.64587402 C135.03508269 121.97507405 135.11299732 129.30389207 135.16009521 136.63375854 C135.17820971 139.06539693 135.20287489 141.49699628 135.23443604 143.92849731 C135.27634858 147.33664717 135.29183934 150.74396798 135.30078125 154.15234375 C135.31823898 155.16831635 135.33569672 156.18428894 135.35368347 157.23104858 C135.33292373 164.13513594 134.19472582 169.60799657 129.53364563 174.89707947 C124.50799291 179.51885764 118.62396966 180.8503503 111.9140625 180.6171875 C105.54261358 179.86042537 100.78937197 177.30547075 96.52081299 172.51046753 C90.32752221 164.474578 90.27166268 155.36865116 90.265625 145.6171875 C90.25061256 144.21898514 90.23387908 142.8208003 90.21551514 141.42263794 C90.17217194 137.77639873 90.15191694 134.13039855 90.13677979 130.48394775 C90.11708813 126.74957332 90.07513257 123.01545262 90.03515625 119.28125 C89.96021307 111.97923545 89.90970588 104.67732858 89.875 97.375 C89.54438065 98.17213913 89.21376129 98.96927826 88.87312317 99.79057312 C85.88525088 106.98073748 82.83365018 114.12124917 79.5625 121.1875 C79.12744141 122.17169922 78.69238281 123.15589844 78.24414062 124.16992188 C74.75073368 131.66441073 70.53330481 136.93997703 63.125 140.8125 C56.49129506 141.96064124 49.58717781 142.83227224 43.5 139.4375 C35.54910872 133.28423975 31.65512548 123.28330471 27.44091797 114.41577148 C26.48838988 112.41308984 25.52427236 110.41629075 24.55859375 108.41992188 C19.875 98.66160553 19.875 98.66160553 19.875 96.375 C19.215 96.375 18.555 96.375 17.875 96.375 C17.88832367 97.23197983 17.90164734 98.08895966 17.91537476 98.97190857 C18.0359687 107.07757287 18.12713464 115.18293269 18.18587303 123.28929043 C18.21708756 127.45619139 18.25937591 131.62234655 18.32763672 135.78881836 C18.39318733 139.81540742 18.42878022 143.84128258 18.44426346 147.86836433 C18.45528642 149.39892874 18.47681177 150.92945733 18.50938034 152.45971489 C18.67379007 160.5102586 18.63982068 167.08475113 13.57583618 173.7313385 C8.11904979 179.00469157 0.97307347 180.80515998 -6.42578125 180.71875 C-12.29300523 179.97154926 -17.1410657 176.78318304 -21.0625 172.4375 C-24.41185544 167.46421465 -25.37338817 163.04650795 -25.39915466 157.10211182 C-25.40912979 155.86302063 -25.41910492 154.62392944 -25.42938232 153.34729004 C-25.43027798 151.98706068 -25.43094162 150.62683114 -25.43139648 149.26660156 C-25.43902408 147.82382786 -25.4474526 146.3810582 -25.45661926 144.93829346 C-25.47851361 141.02900315 -25.48735646 137.11979104 -25.49244571 133.21044636 C-25.49609565 130.76434981 -25.50233905 128.31827354 -25.5094471 125.87218475 C-25.5339252 117.32786667 -25.54698968 108.78360915 -25.55053711 100.23925781 C-25.55416985 92.29232241 -25.58405046 84.3457738 -25.62594169 76.39895654 C-25.66070943 69.56220445 -25.67608668 62.72558014 -25.67678314 55.8887403 C-25.67757383 51.81163336 -25.68621586 47.73492065 -25.71478081 43.65790558 C-25.74107284 39.81962427 -25.74310555 35.98206089 -25.72712517 32.14373016 C-25.72531939 30.7417595 -25.73192223 29.33974649 -25.74794388 27.93786621 C-25.83945702 19.40452308 -25.2093661 12.47301487 -20.125 5.375 C-14.24265472 -0.15740751 -7.59402171 0.1044178 0 0 Z " fill="#239B94" transform="translate(274.125,312.625)"/>
<path d="M0 0 C1.30706406 -0.00099701 2.61412811 -0.00199402 3.96080017 -0.00302124 C6.72230605 -0.00284254 9.4826353 0.01783648 12.24389648 0.05419922 C15.73847043 0.09926833 19.23132332 0.10034298 22.72610664 0.08769417 C50.49101453 0.01155018 50.49101453 0.01155018 62.40234375 4.7265625 C63.54908569 5.16572998 63.54908569 5.16572998 64.71899414 5.61376953 C78.70636263 11.47848698 87.62866347 20.64271035 94.10546875 34.32421875 C98.04227275 44.65240033 98.33960206 59.47728756 94.83984375 69.9765625 C91.99369653 76.32721839 87.99662964 82.93555992 81.40234375 85.7265625 C81.40234375 86.3865625 81.40234375 87.0465625 81.40234375 87.7265625 C82.48708984 88.0978125 82.48708984 88.0978125 83.59375 88.4765625 C92.31844681 92.35959863 98.33250511 100.34511263 102.40234375 108.7265625 C102.74136719 109.3865625 103.08039063 110.0465625 103.4296875 110.7265625 C107.98474027 121.47396812 106.54025828 137.13054565 102.40234375 147.7265625 C95.70523522 162.40439202 85.00465445 170.28494172 70.21875 175.9453125 C56.28793883 180.81500929 42.08562137 180.05175977 27.50708008 180.1315918 C24.56718258 180.14939802 21.62824549 180.18422673 18.6887207 180.23413086 C15.11435143 180.29470472 11.5408709 180.32511497 7.96601295 180.33476448 C5.96415424 180.34734154 3.96254812 180.38929131 1.96110535 180.43199158 C-6.29265191 180.4134933 -12.20796138 179.17901965 -18.59765625 173.7265625 C-23.48485851 167.74079731 -25.84040692 161.30884931 -25.86508179 153.55410767 C-25.87361176 152.33736862 -25.88214172 151.12062958 -25.89093018 149.86701965 C-25.89023127 148.53195177 -25.88930827 147.196884 -25.88818359 145.86181641 C-25.89417284 144.44535469 -25.9009793 143.02889623 -25.90853882 141.61244202 C-25.9261648 137.77558811 -25.93089273 133.93882348 -25.93217039 130.101933 C-25.93359437 127.7020847 -25.93786861 125.30225892 -25.94316483 122.90241623 C-25.96165316 114.52249466 -25.96983685 106.14263661 -25.96826172 97.76269531 C-25.96706033 89.96346252 -25.98816516 82.16450647 -26.01974905 74.36534369 C-26.04593694 67.65855826 -26.05662798 60.95186309 -26.0553509 54.24502695 C-26.05484205 50.24405894 -26.06048275 46.24333706 -26.081707 42.2424202 C-26.10113226 38.47808362 -26.10118504 34.7142269 -26.08667374 30.94987297 C-26.08360028 28.91894571 -26.10023159 26.88801819 -26.11755371 24.85716248 C-26.06073737 16.57831267 -25.22597922 11.24009651 -19.93507385 4.65835571 C-13.73578866 -0.28798498 -7.69245994 -0.11372103 0 0 Z " fill="#209790" transform="translate(469.59765625,312.2734375)"/>
<path d="M0 0 C1.08475113 0.38591309 2.16950226 0.77182617 3.28712463 1.16943359 C5.05454262 1.80292725 5.05454262 1.80292725 6.85766602 2.44921875 C8.09528183 2.89217285 9.33289764 3.33512695 10.60801697 3.79150391 C24.66861148 8.83863345 38.64943154 14.09783175 52.62835693 19.3659668 C58.06706635 21.41507687 63.50730544 23.46012599 68.94747353 25.50535965 C70.28323076 26.00756401 71.61895365 26.50985972 72.95464134 27.01224899 C85.57425529 31.75833637 98.21427037 36.44791117 110.86164856 41.11953735 C119.59377821 44.34950326 128.32133072 47.5806507 136.94750977 51.0859375 C139.68103376 52.16411632 142.43390357 53.18257047 145.19213867 54.19555664 C151.59924449 56.55747874 157.95227369 59.02637531 164.23657227 61.69921875 C164.88706543 61.96774658 165.53755859 62.23627441 166.20776367 62.51293945 C170.74510913 64.47998652 174.0972545 66.71431392 177.61157227 70.13671875 C177.61157227 71.12671875 177.61157227 72.11671875 177.61157227 73.13671875 C109.38058087 73.88959909 41.1535145 74.24740964 -27.08152956 74.25954938 C-33.68040297 74.26080981 -40.27927159 74.26453281 -46.87814331 74.26928711 C-97.38940295 74.30313368 -147.88335139 73.93569323 -198.38842773 73.13671875 C-194.82017859 68.68993055 -192.27861568 66.13311552 -187.01342773 63.61328125 C-186.40619873 63.32216461 -185.79896973 63.03104797 -185.17333984 62.73110962 C-178.41103759 59.55860068 -171.42325674 57.00525938 -164.38842773 54.51171875 C-163.12512438 54.05677334 -161.86210289 53.60104445 -160.59936523 53.14453125 C-155.63476248 51.35366399 -150.66188611 49.58639195 -145.68530273 47.82910156 C-139.64686681 45.69048884 -133.66065763 43.48418189 -127.72680664 41.07080078 C-123.7143778 39.46800764 -119.64330204 38.03047236 -115.57592773 36.57421875 C-104.19216577 32.4666453 -92.88241842 28.17183528 -81.57202148 23.8671875 C-72.1739478 20.29072969 -62.75666452 16.76612011 -53.33862305 13.24267578 C-50.27821101 12.09540116 -47.21983675 10.94282534 -44.16186523 9.7890625 C-39.1602846 7.9027655 -34.15468821 6.02762826 -29.14477539 4.16357422 C-27.34648681 3.49363606 -25.54923266 2.82091271 -23.75317383 2.14501953 C-21.38547741 1.2562695 -19.01304946 0.38176351 -16.63842773 -0.48828125 C-15.95337158 -0.74826904 -15.26831543 -1.00825684 -14.5625 -1.27612305 C-8.7539714 -3.37230562 -5.63814123 -2.00618441 0 0 Z " fill="#25A099" transform="translate(419.388427734375,199.86328125)"/>
<path d="M0 0 C2.43215457 0.3354696 3.80017849 0.83371175 5.69921875 2.4140625 C8.66942196 4.46143517 11.52289497 5.18942301 15 6.125 C16.216875 6.45757812 17.43375 6.79015625 18.6875 7.1328125 C20.3271875 7.56207031 20.3271875 7.56207031 22 8 C22.6188205 8.17551895 23.23764099 8.3510379 23.87521362 8.53187561 C26.372953 9.08216751 28.75385977 9.23364398 31.30908203 9.35717773 C32.90322433 9.43747475 32.90322433 9.43747475 34.52957153 9.51939392 C35.67739105 9.57357986 36.82521057 9.62776581 38.0078125 9.68359375 C40.46484683 9.80788191 42.92187797 9.93223299 45.37890625 10.05664062 C49.23120016 10.24694053 53.0835711 10.43549092 56.93603516 10.62231445 C85.75989244 12.0312237 115.72421564 13.67031377 142 27 C142.89203125 27.44085937 143.7840625 27.88171875 144.703125 28.3359375 C150.90324112 31.53763681 156.00332459 35.13898093 161 40 C161.52851563 40.51304687 162.05703125 41.02609375 162.6015625 41.5546875 C163.74860431 42.6889132 164.87702962 43.8419368 166 45 C166.26039063 44.41863281 166.52078125 43.83726562 166.7890625 43.23828125 C173.65433676 30.5485969 189.9965273 24.2217836 203 20 C208.60042149 18.36904214 214.28224013 17.13992083 220 16 C220.69883301 15.85965332 221.39766602 15.71930664 222.11767578 15.57470703 C227.06159206 14.60106172 232.01908545 13.76058658 237 13 C238.27875 12.8040625 239.5575 12.608125 240.875 12.40625 C250.39705925 11.10359964 259.90984019 10.82391006 269.50558472 10.61221313 C298.7905803 11.2426292 298.7905803 11.2426292 325.1171875 1.3125 C326.04917969 0.6628125 326.04917969 0.6628125 327 0 C327.99 0.33 328.98 0.66 330 1 C329.6812569 3.94837364 329.50931931 5.53768151 327.26977539 7.57055664 C318.06989716 13.36439197 304.64455918 13.07707218 294.0625 14.0625 C292.27437001 14.23660869 290.4862845 14.41117479 288.69824219 14.58618164 C278.38846322 15.5796364 268.09051852 16.3427296 257.75 16.9375 C230.84737728 18.54772169 192.53020023 22.07143384 172.9375 43 C170.05829866 46.52667724 168.83486463 49.54738865 168 54 C170.93873924 54.7217956 173.02911972 55.22006521 176 55 C177.99942757 53.71311141 179.52802303 52.22261097 181.2265625 50.5625 C199.6472945 34.33278018 246.92460212 39.65833342 269.82513428 38.53448486 C278.38704037 38.11269303 286.94820482 37.67615206 295.50933647 37.23897171 C298.47377384 37.08904198 301.43840108 36.94350547 304.40309143 36.79867554 C306.22193896 36.7075168 308.04078179 36.61626414 309.85961914 36.52490234 C311.07601578 36.46723442 311.07601578 36.46723442 312.31698608 36.40840149 C321.29245996 36.00002311 321.29245996 36.00002311 330 34 C330.02578125 32.68644531 330.0515625 31.37289062 330.078125 30.01953125 C330.13441829 28.2838215 330.19176535 26.5481457 330.25 24.8125 C330.26417969 23.94818359 330.27835938 23.08386719 330.29296875 22.19335938 C330.45200787 18.04243839 330.67008142 15.55361604 332.83203125 11.92578125 C335 10 335 10 338.4375 9.375 C342.92819413 10.16284108 344.16473443 11.48706741 347 15 C347.63110352 18.1027832 347.63110352 18.1027832 347.62890625 21.55078125 C347.63083984 22.80697266 347.63277344 24.06316406 347.63476562 25.35742188 C347.61091797 26.66259766 347.58707031 27.96777344 347.5625 29.3125 C347.57345703 30.60607422 347.58441406 31.89964844 347.59570312 33.23242188 C347.539461 40.5626461 347.15600983 45.86599618 343 52 C340.72419917 53.73217813 338.62735603 54.78363147 336 56 C335.34 56.33 334.68 56.66 334 57 C331.24271039 57.20469702 328.50362304 57.3545173 325.7421875 57.46484375 C324.89873779 57.50239777 324.05528809 57.53995178 323.1862793 57.5786438 C321.36545618 57.65955219 319.54454879 57.73858099 317.72357178 57.81594849 C312.94021781 58.02005916 308.15761555 58.24028862 303.375 58.4609375 C302.41286591 58.50515335 301.45073181 58.5493692 300.45944214 58.59492493 C291.59302282 59.00789697 282.73360493 59.5081887 273.875 60.0625 C272.58062012 60.14169678 271.28624023 60.22089355 269.95263672 60.30249023 C264.61149992 60.64314767 259.3384528 61.07954657 254.02902222 61.7646637 C250.83063672 62.13562869 247.62880735 62.29795809 244.4140625 62.46484375 C242.98232726 62.54199103 241.5506057 62.61939274 240.11889648 62.69702148 C239.38387909 62.73608612 238.64886169 62.77515076 237.89157104 62.81539917 C213.47066687 62.42880375 213.47066687 62.42880375 191 69 C189.61960831 70.92418235 188.54823658 72.90208055 187.4453125 74.99609375 C184.11887966 79.60814793 177.49016745 82.00816318 172 83 C161.78223329 83.61853768 152.41686624 83.7997803 144.125 77.125 C141.47426672 74.67535683 139.81881403 72.11796692 138 69 C129.29682798 63.93913476 118.21880669 64.30648548 108.4375 63.625 C106.73127013 63.5016366 105.02505312 63.37809513 103.31884766 63.25439453 C86.88105259 62.0786095 70.43324156 61.04292881 53.98607254 60.00786591 C52.5885296 59.91990786 51.19099479 59.83182073 49.79346848 59.74359894 C45.10991682 59.44802098 40.42614708 59.15623424 35.7421875 58.8671875 C34.47087479 58.78848419 33.19956207 58.70978088 31.88972473 58.62869263 C26.09343328 58.27769353 20.29970751 57.95676226 14.49707031 57.73144531 C13.49902374 57.69230011 12.50097717 57.65315491 11.47268677 57.61282349 C9.66231374 57.54588071 7.85165176 57.48609852 6.04074097 57.4357605 C-7.51075011 56.94810861 -7.51075011 56.94810861 -12.875 52.75 C-18.36199035 45.64918896 -18.50099491 39.67327746 -18.44604492 30.94970703 C-18.43749188 28.87302847 -18.46640774 26.79906669 -18.49804688 24.72265625 C-18.49740234 23.40910156 -18.49675781 22.09554687 -18.49609375 20.7421875 C-18.49794678 19.5444873 -18.4997998 18.34678711 -18.50170898 17.11279297 C-17.90624023 13.4182788 -16.92670047 12.25277795 -14 10 C-12 9.46875 -12 9.46875 -10 9.5 C-9.34 9.4896875 -8.68 9.479375 -8 9.46875 C-4.90706368 10.29031121 -3.84826182 11.37522556 -2 14 C-1.44799679 17.01766747 -1.43993192 20.00070876 -1.4375 23.0625 C-1.42855764 24.67851228 -1.40693785 26.29451679 -1.37109375 27.91015625 C-1.37036865 28.62308838 -1.36964355 29.33602051 -1.36889648 30.07055664 C-0.88342624 32.609717 0.01276825 33.37798383 2 35 C3.93897377 35.52241167 3.93897377 35.52241167 6.10522461 35.56835938 C6.94017456 35.61863785 7.77512451 35.66891632 8.63537598 35.72071838 C10.00502502 35.78161903 10.00502502 35.78161903 11.40234375 35.84375 C12.36676392 35.89784531 13.33118408 35.95194061 14.3248291 36.00767517 C16.42429447 36.12353136 18.52412975 36.232825 20.62423706 36.33639526 C23.97240318 36.50172348 27.3192372 36.68436298 30.66625977 36.87133789 C38.95296249 37.32994578 47.24122488 37.7568443 55.52978516 38.18035889 C140.52359608 42.52359608 140.52359608 42.52359608 153 55 C155.22128555 55.02308597 155.22128555 55.02308597 157.625 54.625 C158.44226563 54.51414062 159.25953125 54.40328125 160.1015625 54.2890625 C160.72804688 54.19367187 161.35453125 54.09828125 162 54 C157.76726725 43.14623277 151.06806914 37.36652542 140.62109375 32.390625 C130.18240337 27.84129284 120.12340619 24.6017676 108.9375 22.5 C107.79120117 22.28424316 106.64490234 22.06848633 105.46386719 21.84619141 C80.15324936 17.20021873 54.42616942 15.28906696 28.76049805 13.73852539 C27.44992432 13.65852295 26.13935059 13.57852051 24.7890625 13.49609375 C23.64518066 13.43091553 22.50129883 13.3657373 21.32275391 13.29858398 C13.62339945 12.60671694 4.75001881 11.58573256 -1 6 C-1.4375 3.3125 -1.4375 3.3125 -1 1 C-0.67 0.67 -0.34 0.34 0 0 Z " fill="#23968F" transform="translate(246,504)"/>
<path d="M0 0 C1.08538559 0.38623032 2.17077118 0.77246063 3.28904724 1.1703949 C5.05720543 1.80425865 5.05720543 1.80425865 6.86108398 2.45092773 C8.0991127 2.89408829 9.33714142 3.33724884 10.61268616 3.7938385 C24.62941365 8.82530943 38.57015636 14.05871579 52.50738525 19.30548096 C55.21955909 20.32594865 57.93249786 21.34437334 60.64546776 22.3627224 C78.9816223 29.2456219 97.29930077 36.17677838 115.60717773 43.13452148 C115.60717773 43.46452148 115.60717773 43.79452148 115.60717773 44.13452148 C33.76717773 44.13452148 -48.07282227 44.13452148 -132.39282227 44.13452148 C-130.94770025 41.24427746 -129.21605643 41.18019559 -126.18969727 40.13842773 C-125.07884766 39.75033936 -123.96799805 39.36225098 -122.82348633 38.96240234 C-121.60886719 38.54482666 -120.39424805 38.12725098 -119.14282227 37.69702148 C-116.5682 36.79820589 -113.99594769 35.8927259 -111.42407227 34.98608398 C-110.76054749 34.75265793 -110.09702271 34.51923187 -109.41339111 34.2787323 C-102.44804468 31.81897928 -95.54350836 29.20777436 -88.64282227 26.57202148 C-87.4356958 26.11142334 -86.22856934 25.6508252 -84.98486328 25.17626953 C-82.59613355 24.26444346 -80.20754015 23.35226014 -77.8190918 22.43969727 C-69.67408496 19.33700334 -61.50635591 16.29451775 -53.34301758 13.24047852 C-50.28260554 12.09320389 -47.22423128 10.94062808 -44.16625977 9.78686523 C-39.16467914 7.90056823 -34.15908274 6.025431 -29.14916992 4.16137695 C-27.35088134 3.4914388 -25.5536272 2.81871545 -23.75756836 2.14282227 C-21.38987194 1.25407224 -19.01744399 0.37956625 -16.64282227 -0.49047852 C-15.95776611 -0.75046631 -15.27270996 -1.0104541 -14.56689453 -1.27832031 C-8.75655381 -3.37515684 -5.63982856 -2.00746661 0 0 Z " fill="#EAF7F2" transform="translate(419.392822265625,199.865478515625)"/>
<path d="M0 0 C1.18658203 -0.02449219 2.37316406 -0.04898438 3.59570312 -0.07421875 C14.35503529 -0.1096696 23.38393056 1.85732809 31.33984375 9.4375 C37.60007962 16.47849091 39.4398482 22.60116217 39.3359375 31.953125 C38.63301447 40.74970457 34.52158111 47.50063571 28.0625 53.375 C19.47058052 59.77607526 10.52857122 59.69015735 0.25 59.625 C-0.98943359 59.63273438 -2.22886719 59.64046875 -3.50585938 59.6484375 C-4.68599609 59.64585937 -5.86613281 59.64328125 -7.08203125 59.640625 C-8.15815674 59.63836914 -9.23428223 59.63611328 -10.34301758 59.63378906 C-12.9375 59.375 -12.9375 59.375 -14.9375 57.375 C-15.19146729 55.05993652 -15.19146729 55.05993652 -15.19628906 52.13085938 C-15.20259338 51.03632446 -15.20889771 49.94178955 -15.21539307 48.81408691 C-15.2113446 47.62762573 -15.20729614 46.44116455 -15.203125 45.21875 C-15.20503845 44.00554077 -15.2069519 42.79233154 -15.20892334 41.5423584 C-15.21028634 38.97338657 -15.20658192 36.40440788 -15.19824219 33.83544922 C-15.1875446 29.89144496 -15.19813394 25.94789625 -15.2109375 22.00390625 C-15.20961593 19.51301982 -15.20705358 17.02213368 -15.203125 14.53125 C-15.20919769 12.75155823 -15.20919769 12.75155823 -15.21539307 10.93591309 C-15.20908875 9.84137817 -15.20278442 8.74684326 -15.19628906 7.61914062 C-15.19469788 6.65254517 -15.19310669 5.68594971 -15.19146729 4.69006348 C-14.4348659 -2.20680996 -5.15714658 0.0054429 0 0 Z " fill="#116062" transform="translate(465.9375,661.625)"/>
<path d="M0 0 C2.17276656 1.29853894 3.72802848 2.42857012 5.3203125 4.38671875 C5.7578125 6.82421875 5.7578125 6.82421875 5.3203125 9.38671875 C3.25307668 12.32855434 2.06435585 13.25444438 -1.4921875 13.88671875 C-4.6796875 13.38671875 -4.6796875 13.38671875 -7.8046875 11.38671875 C-12.75863572 8.33306552 -18.06562382 8.41133103 -23.6796875 9.38671875 C-28.42766076 11.53316672 -31.0429927 14.31229628 -33.6796875 18.76171875 C-35.62031095 25.79647874 -35.25505964 30.85241794 -31.6796875 37.38671875 C-28.68665989 40.93109355 -26.21603377 43.27783411 -21.6796875 44.38671875 C-16.24786902 44.73304275 -11.01847644 44.51067432 -5.6796875 43.38671875 C-5.6796875 40.08671875 -5.6796875 36.78671875 -5.6796875 33.38671875 C-6.81857422 33.43892578 -6.81857422 33.43892578 -7.98046875 33.4921875 C-8.97433594 33.51925781 -9.96820313 33.54632812 -10.9921875 33.57421875 C-11.97832031 33.60902344 -12.96445312 33.64382813 -13.98046875 33.6796875 C-16.6796875 33.38671875 -16.6796875 33.38671875 -18.546875 32.06640625 C-19.6796875 30.38671875 -19.6796875 30.38671875 -19.4921875 27.32421875 C-18.6796875 24.38671875 -18.6796875 24.38671875 -16.6796875 22.38671875 C-13.59876075 21.887743 -10.48396968 21.97007454 -7.3671875 21.94921875 C-6.51189453 21.91634766 -5.65660156 21.88347656 -4.77539062 21.84960938 C-0.56454154 21.81373072 1.74655209 22.03076803 5.38671875 24.2890625 C8.12975337 28.68345937 8.05581253 32.3037172 7.9453125 37.38671875 C7.96464844 38.27617188 7.98398437 39.165625 8.00390625 40.08203125 C7.97076581 44.52284969 7.80866289 46.72985309 5.1015625 50.37109375 C2.47300617 52.27605873 0.23741847 53.53895574 -2.8046875 54.63671875 C-3.65289062 54.95125 -4.50109375 55.26578125 -5.375 55.58984375 C-12.99378966 58.22413712 -21.93450572 58.84351978 -29.74609375 56.4453125 C-32.20915443 55.24574554 -34.42464385 53.93894765 -36.6796875 52.38671875 C-37.7728125 51.66484375 -38.8659375 50.94296875 -39.9921875 50.19921875 C-47.51402888 42.32752428 -49.22510836 32.97909209 -49.03125 22.48828125 C-48.73150202 16.99961871 -46.74015203 12.8926505 -43.6796875 8.38671875 C-43.1228125 7.47921875 -42.5659375 6.57171875 -41.9921875 5.63671875 C-30.40735635 -5.63500886 -14.22041678 -6.59526294 0 0 Z " fill="#126264" transform="translate(295.6796875,664.61328125)"/>
<path d="M0 0 C0.83208984 -0.00287018 1.66417969 -0.00574036 2.52148438 -0.00869751 C4.27995484 -0.01073812 6.03844801 -0.00520843 7.796875 0.00732422 C10.49009913 0.02337848 13.1818226 0.00747605 15.875 -0.01171875 C17.58333665 -0.00973632 19.29167236 -0.00589264 21 0 C22.20946289 -0.00910904 22.20946289 -0.00910904 23.44335938 -0.0184021 C29.07000335 0.0524592 29.07000335 0.0524592 31.20507812 1.77035522 C32.5 3.3984375 32.5 3.3984375 33 5.8359375 C32.5 8.3984375 32.5 8.3984375 30.35473633 10.53417969 C27.00115332 12.72420448 25.28891958 12.86718468 21.32421875 12.7890625 C20.16728516 12.77617188 19.01035156 12.76328125 17.81835938 12.75 C16.62017578 12.71648438 15.42199219 12.68296875 14.1875 12.6484375 C12.3612207 12.62136719 12.3612207 12.62136719 10.49804688 12.59375 C7.49789578 12.54668881 4.49935111 12.4809506 1.5 12.3984375 C1.5 16.0284375 1.5 19.6584375 1.5 23.3984375 C3.92085937 23.34623047 3.92085937 23.34623047 6.390625 23.29296875 C8.51040626 23.26483006 10.63019878 23.23752999 12.75 23.2109375 C13.81347656 23.18580078 14.87695312 23.16066406 15.97265625 23.13476562 C16.99746094 23.12509766 18.02226563 23.11542969 19.078125 23.10546875 C20.02075195 23.0897583 20.96337891 23.07404785 21.93457031 23.05786133 C24.97814717 23.4619144 26.3284727 24.2517151 28.5 26.3984375 C28.95370815 29.50957912 29.17476859 31.44466598 27.3190918 34.06762695 C24.79419715 35.9147885 23.06325985 35.74071147 19.95703125 35.69140625 C18.34731445 35.6769043 18.34731445 35.6769043 16.70507812 35.66210938 C15.58552734 35.63697266 14.46597656 35.61183594 13.3125 35.5859375 C12.18134766 35.57240234 11.05019531 35.55886719 9.88476562 35.54492188 C7.08964118 35.50954055 4.29476111 35.45573329 1.5 35.3984375 C1.5 39.3584375 1.5 43.3184375 1.5 47.3984375 C2.74873901 47.38272705 2.74873901 47.38272705 4.02270508 47.36669922 C7.11449156 47.33259308 10.20618208 47.30752674 13.2980957 47.28857422 C15.29319618 47.27358255 17.28820946 47.24817019 19.28320312 47.22265625 C21.16362305 47.21298828 21.16362305 47.21298828 23.08203125 47.203125 C24.23936768 47.19265137 25.3967041 47.18217773 26.58911133 47.17138672 C29.5 47.3984375 29.5 47.3984375 32.5 49.3984375 C33.16710228 55.51354176 33.16710228 55.51354176 31.21961975 58.09683228 C28.18873672 60.39095176 24.4019972 59.82358095 20.74609375 59.796875 C19.88943619 59.79974518 19.03277863 59.80261536 18.15016174 59.80557251 C16.34041685 59.8076131 14.53064991 59.80208357 12.72094727 59.78955078 C9.94432547 59.77347701 7.16915497 59.78940932 4.39257812 59.80859375 C2.63541344 59.8066117 0.87824967 59.80276882 -0.87890625 59.796875 C-2.12892174 59.80598404 -2.12892174 59.80598404 -3.40419006 59.8152771 C-5.74047852 59.78662109 -5.74047852 59.78662109 -9.5 59.3984375 C-11.70069737 56.09739144 -11.75555432 55.07905026 -11.7746582 51.24023438 C-11.78419022 50.18904419 -11.79372223 49.137854 -11.80354309 48.05480957 C-11.80217598 46.35318665 -11.80217598 46.35318665 -11.80078125 44.6171875 C-11.80506638 43.45215698 -11.8093515 42.28712646 -11.81376648 41.08679199 C-11.81951272 38.62215831 -11.82000789 36.15750766 -11.81567383 33.69287109 C-11.81251255 29.91344424 -11.83597506 26.13479884 -11.86132812 22.35546875 C-11.86360087 19.96354266 -11.86430473 17.57161445 -11.86328125 15.1796875 C-11.872491 14.04527222 -11.88170074 12.91085693 -11.89118958 11.74206543 C-11.88496078 10.69087524 -11.87873199 9.63968506 -11.87231445 8.55664062 C-11.87294388 7.63081177 -11.8735733 6.70498291 -11.8742218 5.75109863 C-11.5 3.3984375 -11.5 3.3984375 -10.21305847 1.60031128 C-7.19435259 -0.51759859 -3.55875552 -0.02680268 0 0 Z " fill="#115F61" transform="translate(541.5,661.6015625)"/>
<path d="M0 0 C4.62925544 1.26252421 4.62925544 1.26252421 6.4375 3.9375 C6.73278757 6.66197747 6.85468141 9.16949575 6.84375 11.89453125 C6.85458618 12.67511398 6.86542236 13.45569672 6.87658691 14.25993347 C6.91086505 16.75670623 6.9264376 19.25302288 6.9375 21.75 C6.95211451 25.02777972 6.98591811 28.30454822 7.03125 31.58203125 C7.02822876 32.32910843 7.02520752 33.07618561 7.02209473 33.84590149 C7.0899114 38.61208318 7.93088334 41.88047448 10.4375 45.9375 C13.7914367 48.57273598 17.31122125 48.29321368 21.4375 47.9375 C25.82568046 46.37971092 25.82568046 46.37971092 28.58837891 42.83813477 C29.67888795 39.11290823 29.71605617 35.56074884 29.7109375 31.71484375 C29.73121576 30.10871685 29.75206633 28.5025971 29.7734375 26.89648438 C29.79607612 24.37941415 29.81252866 21.86262654 29.81835938 19.34545898 C29.82787623 16.90557636 29.86162554 14.46694582 29.8984375 12.02734375 C29.89339203 11.27621811 29.88834656 10.52509247 29.88314819 9.75120544 C29.94850157 6.28080219 30.19373698 4.27527839 32.24853516 1.42797852 C34.4375 -0.0625 34.4375 -0.0625 38 0 C42.62251607 1.2606862 42.62251607 1.2606862 44.4375 3.9375 C44.73629398 6.63341096 44.85794879 9.09328183 44.8359375 11.7890625 C44.83880768 12.56253021 44.84167786 13.33599792 44.84463501 14.13290405 C44.84667658 15.77204112 44.84114013 17.4112025 44.82861328 19.05029297 C44.81269051 21.53279798 44.82838946 24.01364235 44.84765625 26.49609375 C44.86432902 38.23654107 44.0444908 48.03732703 35.4375 56.9375 C28.11589132 61.66603894 18.90771438 61.79347936 10.4375 60.9375 C3.93462325 59.03378506 -0.42935706 55.7149536 -4.40625 50.29296875 C-7.36947649 44.25639587 -7.87839921 38.02689468 -7.8984375 31.421875 C-7.9050943 30.64362366 -7.9117511 29.86537231 -7.91860962 29.0635376 C-7.92865897 27.43333273 -7.93342906 25.80308737 -7.93310547 24.17285156 C-7.93751386 21.67966114 -7.97400717 19.1881948 -8.01171875 16.6953125 C-8.01758162 15.10417267 -8.02155456 13.51302451 -8.0234375 11.921875 C-8.03780853 11.18016052 -8.05217957 10.43844604 -8.06698608 9.67425537 C-8.036396 6.22102998 -7.80056444 4.26740493 -5.75634766 1.43457031 C-3.5625 -0.0625 -3.5625 -0.0625 0 0 Z " fill="#136365" transform="translate(336.5625,661.0625)"/>
<path d="M0 0 C2.43215457 0.3354696 3.80017849 0.83371175 5.69921875 2.4140625 C8.66942196 4.46143517 11.52289497 5.18942301 15 6.125 C16.216875 6.45757812 17.43375 6.79015625 18.6875 7.1328125 C20.3271875 7.56207031 20.3271875 7.56207031 22 8 C22.6188205 8.17551895 23.23764099 8.3510379 23.87521362 8.53187561 C26.372953 9.08216751 28.75385977 9.23364398 31.30908203 9.35717773 C32.90322433 9.43747475 32.90322433 9.43747475 34.52957153 9.51939392 C35.67739105 9.57357986 36.82521057 9.62776581 38.0078125 9.68359375 C40.46484683 9.80788191 42.92187797 9.93223299 45.37890625 10.05664062 C49.23120016 10.24694053 53.0835711 10.43549092 56.93603516 10.62231445 C85.75989244 12.0312237 115.72421564 13.67031377 142 27 C142.89203125 27.44085937 143.7840625 27.88171875 144.703125 28.3359375 C150.90324112 31.53763681 156.00332459 35.13898093 161 40 C161.52851563 40.51304687 162.05703125 41.02609375 162.6015625 41.5546875 C163.74860431 42.6889132 164.87702962 43.8419368 166 45 C166.26039063 44.41863281 166.52078125 43.83726562 166.7890625 43.23828125 C173.65433676 30.5485969 189.9965273 24.2217836 203 20 C208.60042149 18.36904214 214.28224013 17.13992083 220 16 C220.69883301 15.85965332 221.39766602 15.71930664 222.11767578 15.57470703 C227.06159206 14.60106172 232.01908545 13.76058658 237 13 C238.27875 12.8040625 239.5575 12.608125 240.875 12.40625 C250.39705925 11.10359964 259.90984019 10.82391006 269.50558472 10.61221313 C298.7905803 11.2426292 298.7905803 11.2426292 325.1171875 1.3125 C326.04917969 0.6628125 326.04917969 0.6628125 327 0 C327.99 0.33 328.98 0.66 330 1 C329.6812569 3.94837364 329.50931931 5.53768151 327.26977539 7.57055664 C318.06989716 13.36439197 304.64455918 13.07707218 294.0625 14.0625 C292.27437001 14.23660869 290.4862845 14.41117479 288.69824219 14.58618164 C278.38846322 15.5796364 268.09051852 16.3427296 257.75 16.9375 C230.84737728 18.54772169 192.53020023 22.07143384 172.9375 43 C170.05829866 46.52667724 168.83486463 49.54738865 168 54 C166.02 54 164.04 54 162 54 C161.76925781 53.40832031 161.53851563 52.81664062 161.30078125 52.20703125 C156.09258429 39.58796115 145.74113754 34.48499181 133.625 29.39453125 C125.4873165 26.26397844 117.51334568 24.1113522 108.9375 22.5 C107.79120117 22.28424316 106.64490234 22.06848633 105.46386719 21.84619141 C80.15324936 17.20021873 54.42616942 15.28906696 28.76049805 13.73852539 C27.44992432 13.65852295 26.13935059 13.57852051 24.7890625 13.49609375 C23.64518066 13.43091553 22.50129883 13.3657373 21.32275391 13.29858398 C13.62339945 12.60671694 4.75001881 11.58573256 -1 6 C-1.4375 3.3125 -1.4375 3.3125 -1 1 C-0.67 0.67 -0.34 0.34 0 0 Z " fill="#84C7BD" transform="translate(246,504)"/>
<path d="M0 0 C1.32 0.66 2.64 1.32 4 2 C3.57880331 8.17755152 1.50326223 13.26646914 -1.03955078 18.87646484 C-1.76237745 20.47462101 -2.47520651 22.07730474 -3.18310547 23.68212891 C-4.53680109 26.73637634 -5.92153667 29.77506099 -7.3125 32.8125 C-7.74997559 33.80314453 -8.18745117 34.79378906 -8.63818359 35.81445312 C-12.1318961 43.29971638 -16.34928957 48.56894682 -23.75 52.4375 C-30.38370494 53.58564124 -37.28782219 54.45727224 -43.375 51.0625 C-51.32589128 44.90923975 -55.21987452 34.90830471 -59.43408203 26.04077148 C-60.38661012 24.03808984 -61.35072764 22.04129075 -62.31640625 20.04492188 C-67 10.28660553 -67 10.28660553 -67 8 C-67.66 8 -68.32 8 -69 8 C-68.98667633 8.85697983 -68.97335266 9.71395966 -68.95962524 10.59690857 C-68.8390313 18.70257287 -68.74786536 26.80793269 -68.68912697 34.91429043 C-68.65791244 39.08119139 -68.61562409 43.24734655 -68.54736328 47.41381836 C-68.48181267 51.44040742 -68.44621978 55.46628258 -68.43073654 59.49336433 C-68.41971358 61.02392874 -68.39818823 62.55445733 -68.36561966 64.08471489 C-68.20120993 72.1352586 -68.23517932 78.70975113 -73.29916382 85.3563385 C-78.75595021 90.62969157 -85.90192653 92.43015998 -93.30078125 92.34375 C-99.10460752 91.60462307 -103.96039339 88.39377984 -108 84.25 C-110.52265693 80.15068249 -110.88413226 76.74004379 -111 72 C-110.38125 72.86625 -110.38125 72.86625 -109.75 73.75 C-106.55196219 77.8617629 -104.00284886 80.37231255 -99 82 C-95.81739 82.35179835 -95.81739 82.35179835 -92.5 82.3125 C-91.3965625 82.32925781 -90.293125 82.34601563 -89.15625 82.36328125 C-84.84380841 81.86692349 -82.27728219 80.46711809 -79.43043518 77.19715881 C-74.58653847 69.75689833 -75.70631852 58.66994065 -75.69140625 50.16015625 C-75.67269014 48.19779604 -75.6539573 46.23543582 -75.63422298 44.27308559 C-75.58914062 39.48382834 -75.56507746 34.69444225 -75.54370117 29.9050293 C-75.53089913 27.19733517 -75.51023603 24.48990407 -75.48143005 21.78233337 C-75.45519142 19.24382856 -75.44129329 16.70515956 -75.4410553 14.16651917 C-75.42771652 13.02110153 -75.41437775 11.8756839 -75.40063477 10.69555664 C-75.39302879 9.1864547 -75.39302879 9.1864547 -75.38526917 7.64686584 C-74.94603583 4.62925682 -74.01358871 3.24439639 -72 1 C-67.47127323 1.53279139 -67.47127323 1.53279139 -65.44311523 3.54345703 C-60.56068136 11.25977635 -56.8552876 19.53695589 -53.17993164 27.87792969 C-52.3188746 29.8219288 -51.42955644 31.75084786 -50.53515625 33.6796875 C-50.023479 34.82163574 -49.51180176 35.96358398 -48.98461914 37.14013672 C-46.33948616 40.95180947 -44.36368125 41.56711247 -40 43 C-33.87766461 43.94189775 -27.29131669 43.40970623 -22 40 C-13.81576451 31.75892954 -9.69571062 19.20969657 -4.80273438 8.87304688 C-4.32771484 7.87466797 -3.85269531 6.87628906 -3.36328125 5.84765625 C-2.93313721 4.94023682 -2.50299316 4.03281738 -2.05981445 3.09790039 C-1 1 -1 1 0 0 Z " fill="#156F6E" transform="translate(361,401)"/>
<path d="M0 0 C3.28130664 1.35233767 4.62332778 2.47594051 6.125 5.6875 C6.43695312 6.33074219 6.74890625 6.97398437 7.0703125 7.63671875 C11.83793237 19.75608859 11.74781286 34.84220778 7 47 C0.30289147 61.67782952 -10.3976893 69.55837922 -25.18359375 75.21875 C-39.11440492 80.08844679 -53.31672238 79.32519727 -67.89526367 79.4050293 C-70.83516117 79.42283552 -73.77409826 79.45766423 -76.71362305 79.50756836 C-80.28799232 79.56814222 -83.86147285 79.59855247 -87.4363308 79.60820198 C-89.43818951 79.62077904 -91.43979563 79.66272881 -93.4412384 79.70542908 C-101.75127989 79.68680465 -107.5123275 78.37469558 -114 73 C-116.62844684 70.1551962 -118 67.98763217 -118 64 C-117.01 64 -116.02 64 -115 64 C-114.34 64.99 -113.68 65.98 -113 67 C-106.30673688 70.63450396 -98.83905342 70.43829533 -91.43359375 70.3984375 C-90.24129654 70.40130768 -89.04899933 70.40417786 -87.8205719 70.40713501 C-85.30509973 70.40916891 -82.78961149 70.40368646 -80.27416992 70.39111328 C-76.47342431 70.37515088 -72.67375828 70.3909346 -68.87304688 70.41015625 C-48.60748638 70.42820542 -29.85653867 69.52949163 -12.83984375 57.234375 C-11 56 -11 56 -8 55 C-6.90833725 53.06669397 -6.90833725 53.06669397 -6 51 C-5.01 50.01 -5.01 50.01 -4 49 C-3.3574765 46.93125966 -3.3574765 46.93125966 -3 45 C-2.34 45 -1.68 45 -1 45 C4.44781885 31.15346041 2.97418987 14.31328873 0 0 Z " fill="#10696A" transform="translate(565,413)"/>
<path d="M0 0 C1.95043945 1.30932617 1.95043945 1.30932617 4 4 C4.70517693 7.66285025 4.72286616 11.3285266 4.79296875 15.05078125 C4.82905746 16.15931458 4.86514618 17.2678479 4.90232849 18.40997314 C5.01601594 22.04386679 5.10214327 25.67783945 5.1875 29.3125 C5.25999506 31.84176072 5.33406267 34.37097683 5.40966797 36.90014648 C5.55750293 41.95208479 5.69417313 47.00412706 5.82080078 52.05664062 C5.96670759 57.84614429 6.14368109 63.63389037 6.33984375 69.421875 C6.65332547 78.94669669 6.85668625 88.47116429 7 98 C7.02510651 99.61908264 7.02510651 99.61908264 7.05072021 101.27087402 C7.16008269 108.60007405 7.23799732 115.92889207 7.28509521 123.25875854 C7.30320971 125.69039693 7.32787489 128.12199628 7.35943604 130.55349731 C7.40134858 133.96164717 7.41683934 137.36896798 7.42578125 140.77734375 C7.44323898 141.79331635 7.46069672 142.80928894 7.47868347 143.85604858 C7.45792373 150.76013594 6.31972582 156.23299657 1.65864563 161.52207947 C-3.36700709 166.14385764 -9.25103034 167.4753503 -15.9609375 167.2421875 C-23.44269777 166.35354931 -28.34997685 162.81895162 -33 157 C-34.59852814 154.13597042 -35.14627384 152.90202204 -34.625 149.6875 C-34.41875 149.130625 -34.2125 148.57375 -34 148 C-33.2265625 149.11375 -33.2265625 149.11375 -32.4375 150.25 C-28.61471393 154.56288685 -25.58344883 156.67747612 -19.90234375 157.38671875 C-13.14534681 157.61169339 -8.24310709 157.44524297 -3 153 C0.06853946 147.36879841 0.39074087 142.81301909 0.21875 136.48046875 C0.20614136 135.56363815 0.19353271 134.64680756 0.18054199 133.70219421 C0.13634142 130.80091575 0.06988172 127.90076317 0 125 C-0.03583332 123.19223335 -0.07100099 121.38445336 -0.10546875 119.57666016 C-0.18080339 115.83945627 -0.26541123 112.10258809 -0.35595703 108.36572266 C-0.90216266 85.69563675 -1.11256079 63.0321624 -1.12338257 40.35647202 C-1.12499706 38.12905181 -1.12855373 35.90164192 -1.13256836 33.67422485 C-1.1384158 30.15269801 -1.13865225 26.63121459 -1.13431931 23.1096859 C-1.13284999 21.18199537 -1.13577964 19.25430307 -1.13882446 17.32661438 C-1.13571259 16.16840683 -1.13260071 15.01019928 -1.12939453 13.81689453 C-1.12859894 12.80934113 -1.12780334 11.80178772 -1.12698364 10.76370239 C-1.00348098 8.07576087 -0.60287666 5.61837497 0 3 C-0.66 3 -1.32 3 -2 3 C-2 2.34 -2 1.68 -2 1 C-1.34 0.67 -0.68 0.34 0 0 Z " fill="#187574" transform="translate(402,326)"/>
<path d="M0 0 C14.69366052 -0.20673728 29.27278949 0.42545666 43.9375 1.3125 C45.07251953 1.37936005 46.20753906 1.44622009 47.37695312 1.5151062 C65.28320796 2.57100908 83.14937794 3.90513798 101.01535034 5.49261475 C105.70916092 5.90359586 110.404313 6.25077462 115.10546875 6.5625 C117.02939453 6.69096313 117.02939453 6.69096313 118.9921875 6.82202148 C121.35769074 6.97596048 123.7235603 7.12442869 126.08984375 7.26586914 C143.4495769 8.39761898 143.4495769 8.39761898 149.25 14.9375 C154.70466075 20.98932132 158.8179541 23.5268885 167 24 C167.86109375 24.06445312 168.7221875 24.12890625 169.609375 24.1953125 C176.39914505 24.48301462 182.128093 23.57966523 188 20 C189.56399173 18.37944565 189.56399173 18.37944565 190.875 16.5625 C195.35448773 10.6449949 202.80857883 8.68013894 209.8125 7.1875 C216.17263775 6.69930179 222.62385048 6.9252795 229 7 C228.34 7.66 227.68 8.32 227 9 C227.99 9.66 228.98 10.32 230 11 C229.35039307 11.07516846 228.70078613 11.15033691 228.03149414 11.2277832 C225.04058323 11.57954559 222.05163023 11.94592576 219.0625 12.3125 C217.53012695 12.48942383 217.53012695 12.48942383 215.96679688 12.66992188 C206.67495651 13.73041326 206.67495651 13.73041326 198 17 C196.59128288 18.92932997 195.55735882 20.88476105 194.4453125 22.99609375 C191.11887966 27.60814793 184.49016745 30.00816318 179 31 C168.78223329 31.61853768 159.41686624 31.7997803 151.125 25.125 C148.47426672 22.67535683 146.81881403 20.11796692 145 17 C136.29682798 11.93913476 125.21880669 12.30648548 115.4375 11.625 C113.73127013 11.5016366 112.02505312 11.37809513 110.31884766 11.25439453 C93.88105259 10.0786095 77.43324156 9.04292881 60.98607254 8.00786591 C59.5885296 7.91990786 58.19099479 7.83182073 56.79346848 7.74359894 C34.83935349 6.35407407 34.83935349 6.35407407 12.86495972 5.34786987 C8.17412835 5.16174845 3.6349909 4.75315681 -1 4 C-0.67 2.68 -0.34 1.36 0 0 Z " fill="#15706F" transform="translate(239,556)"/>
<path d="M0 0 C0.69609375 0.4125 1.3921875 0.825 2.109375 1.25 C9.46424188 6.11637808 13.72058301 13.57882058 16 22 C16.1953125 25.4296875 16.1953125 25.4296875 16.125 28.875 C16.10695313 30.02742188 16.08890625 31.17984375 16.0703125 32.3671875 C16.04710937 33.23601562 16.02390625 34.10484375 16 35 C14.39532024 32.00692341 13.37533691 29.05190877 12.375 25.8125 C9.52995019 17.97815328 4.69400406 12.27471797 -2.4375 7.9375 C-10.25182276 4.48325532 -20.03955775 4.3402797 -28.10546875 7.0390625 C-34.0871504 10.278763 -38.24409328 14.78768852 -41 21 C-41.90596218 24.32851304 -42.61894985 27.65731959 -43.296875 31.0390625 C-44.71376521 37.00574463 -47.94042813 40.54468263 -53 44 C-59.23641547 46.92922545 -65.88971664 47.09435896 -72.375 44.8125 C-77.98889235 40.93624099 -81.82868738 36.49020768 -84 30 C-84.29721319 27.23072791 -84.19971134 24.79595874 -84 22 C-83.01 22 -82.02 22 -81 22 C-80.62875 23.216875 -80.2575 24.43375 -79.875 25.6875 C-78.16322752 30.28483181 -76.01436253 32.24012576 -72 35 C-66.6622917 36.7792361 -61.83757484 36.83210936 -56.6875 34.5 C-51.99598774 30.13580255 -50.26386494 25.15377257 -48.625 19.0625 C-46.07933208 10.20030848 -40.98576932 3.61400005 -33 -1 C-22.96611696 -6.2144589 -9.55774593 -6.02062736 0 0 Z " fill="#167373" transform="translate(427,73)"/>
<path d="M0 0 C1.84765625 0.14453125 1.84765625 0.14453125 4 1 C5.30859375 3.51171875 5.30859375 3.51171875 6.4375 6.6875 C9.60227928 15.03809658 9.60227928 15.03809658 16.62109375 20.20703125 C20.68809053 21.7355307 24.77360737 22.99561022 29 24 C28.890625 26.33984375 28.890625 26.33984375 28 29 C25.234375 30.44140625 25.234375 30.44140625 21.75 31.5625 C16.06399627 33.42138583 11.76639771 35.19293387 8.48828125 40.40234375 C8.10027344 41.23894531 7.71226562 42.07554687 7.3125 42.9375 C6.91675781 43.77152344 6.52101563 44.60554688 6.11328125 45.46484375 C5.01904304 47.95663532 3.99266973 50.46619918 3 53 C2.01 53 1.02 53 0 53 C-0.31453125 52.19175781 -0.6290625 51.38351563 -0.953125 50.55078125 C-1.38109375 49.48214844 -1.8090625 48.41351563 -2.25 47.3125 C-2.87648438 45.72888672 -2.87648438 45.72888672 -3.515625 44.11328125 C-6.0023483 38.89770633 -8.6301946 35.77151312 -13.875 33.3125 C-14.74640625 32.90257812 -15.6178125 32.49265625 -16.515625 32.0703125 C-19.29871907 30.87130657 -22.08850663 29.84280071 -25 29 C-25 26.6875 -25 26.6875 -24 24 C-21.31355909 22.82173644 -18.77892592 21.88464078 -16 21 C-10.60455257 19.18175398 -7.8066338 17.36303386 -5.1875 12.1875 C-4.43384653 10.46886454 -3.70338546 8.73981329 -3 7 C-2.39635887 5.6247692 -1.79227108 4.24973427 -1.1875 2.875 C-0.795625 1.92625 -0.40375 0.9775 0 0 Z " fill="#31A8A0" transform="translate(544,98)"/>
<path d="M0 0 C1.65612305 -0.0309375 1.65612305 -0.0309375 3.34570312 -0.0625 C10.70649484 -0.09728224 18.48264553 0.13497045 24.78149414 4.41918945 C27.77305 7.38373352 28.427127 10.28308618 28.625 14.3125 C28.43123548 17.46471795 28.06716536 19.24024515 26.6875 22.125 C19.39184806 28.03100395 11.28411477 28.87013929 2.1875 28.6875 C1.16914063 28.69458984 0.15078125 28.70167969 -0.8984375 28.70898438 C-8.16920643 28.64680017 -8.16920643 28.64680017 -11.2277832 27.06713867 C-13.56345859 24.5847123 -13.41327633 23.11367884 -13.36328125 19.7421875 C-13.35490234 18.67355469 -13.34652344 17.60492188 -13.33789062 16.50390625 C-13.30888672 15.38886719 -13.27988281 14.27382813 -13.25 13.125 C-13.24033203 12.00222656 -13.23066406 10.87945312 -13.22070312 9.72265625 C-13.0655407 -1.43554585 -10.59634431 0.04797439 0 0 Z " fill="#ECF6F3" transform="translate(500.9375,422.75)"/>
<path d="M0 0 C6.28478375 0.520901 9.32870066 4.91551217 13.2109375 9.41796875 C25.75041825 24.92732652 30.29760474 44.34524153 29 64 C26.15693125 85.17750422 15.8730214 105.64219139 -1 119 C-3.31 118.01 -5.62 117.02 -8 116 C-6.69713304 113.08107691 -5.37832246 111.24033488 -3 109.125 C11.34317802 95.05131802 19.76207738 76.07758633 20.30102539 55.93530273 C20.41891598 34.76767187 13.009256 17.67702457 -1 2 C-0.67 1.34 -0.34 0.68 0 0 Z " fill="#146F70" transform="translate(454,52)"/>
<path d="M0 0 C1.02544922 -0.02900391 2.05089844 -0.05800781 3.10742188 -0.08789062 C9.47759434 -0.14087351 14.73118782 0.36423413 19.9375 4.3125 C22.79032921 8.59174381 22.53344997 12.29397394 21.9375 17.3125 C19.75882687 22.56112162 16.15845174 25.06619986 11.140625 27.40234375 C4.60051043 29.26069338 -2.34093958 28.99398158 -9.0625 28.3125 C-10.0525 27.6525 -11.0425 26.9925 -12.0625 26.3125 C-12.41894531 23.80639648 -12.41894531 23.80639648 -12.390625 20.68359375 C-12.38546875 19.56662109 -12.3803125 18.44964844 -12.375 17.29882812 C-12.354375 16.12771484 -12.33375 14.95660156 -12.3125 13.75 C-12.30734375 12.57501953 -12.3021875 11.40003906 -12.296875 10.18945312 C-12.19491913 -0.84089707 -10.57325606 0.09712115 0 0 Z " fill="#EBF7F4" transform="translate(500.0625,354.6875)"/>
<path d="M0 0 C16.89389068 0 16.89389068 0 22 4 C26.69322402 9.05424126 27.36669521 12.36089612 27.26953125 19.109375 C26.78408349 24.31562633 25.06127005 27.82745316 21.48046875 31.6015625 C14.60340817 36.9653701 9.46602123 35 0 35 C0 23.45 0 11.9 0 0 Z " fill="#E0F4EE" transform="translate(464,674)"/>
<path d="M0 0 C2.43215457 0.3354696 3.80017849 0.83371175 5.69921875 2.4140625 C8.66942196 4.46143517 11.52289497 5.18942301 15 6.125 C16.216875 6.45757812 17.43375 6.79015625 18.6875 7.1328125 C20.3271875 7.56207031 20.3271875 7.56207031 22 8 C22.6188205 8.17551895 23.23764099 8.3510379 23.87521362 8.53187561 C26.372953 9.08216751 28.75385977 9.23364398 31.30908203 9.35717773 C32.90322433 9.43747475 32.90322433 9.43747475 34.52957153 9.51939392 C35.67739105 9.57357986 36.82521057 9.62776581 38.0078125 9.68359375 C40.46484683 9.80788191 42.92187797 9.93223299 45.37890625 10.05664062 C49.23120016 10.24694053 53.0835711 10.43549092 56.93603516 10.62231445 C85.75989244 12.0312237 115.72421564 13.67031377 142 27 C142.89203125 27.44085937 143.7840625 27.88171875 144.703125 28.3359375 C150.89029722 31.53095266 155.99871024 35.15634402 161 40 C160.34 40.99 159.68 41.98 159 43 C155.83067782 41.51027252 153.02543262 39.70713083 150.125 37.75 C137.53610573 29.67156518 123.52111579 25.24017773 108.9375 22.5 C107.79120117 22.28424316 106.64490234 22.06848633 105.46386719 21.84619141 C80.15324936 17.20021873 54.42616942 15.28906696 28.76049805 13.73852539 C27.44992432 13.65852295 26.13935059 13.57852051 24.7890625 13.49609375 C23.64518066 13.43091553 22.50129883 13.3657373 21.32275391 13.29858398 C13.62339945 12.60671694 4.75001881 11.58573256 -1 6 C-1.4375 3.3125 -1.4375 3.3125 -1 1 C-0.67 0.67 -0.34 0.34 0 0 Z " fill="#89C9BF" transform="translate(246,504)"/>
<path d="M0 0 C2.56987922 2.02210714 3.84057842 3.2259567 4.50793457 6.46618652 C4.51111694 7.38677856 4.51429932 8.30737061 4.51757812 9.25585938 C4.53018677 10.30374634 4.54279541 11.3516333 4.55578613 12.43127441 C4.54364075 14.12044983 4.54364075 14.12044983 4.53125 15.84375 C4.5350769 17.0049939 4.53890381 18.16623779 4.54284668 19.3626709 C4.54556792 21.81714749 4.53819205 24.27165298 4.52148438 26.72607422 C4.50007965 30.48600841 4.52128088 34.24403159 4.546875 38.00390625 C4.54423176 40.38802506 4.53910688 42.77214267 4.53125 45.15625 C4.53934692 46.28236694 4.54744385 47.40848389 4.55578613 48.56872559 C4.54317749 49.61661255 4.53056885 50.66449951 4.51757812 51.74414062 C4.51439575 52.66473267 4.51121338 53.58532471 4.50793457 54.53381348 C3.84057842 57.7740433 2.56987922 58.97789286 0 61 C-3.13267381 61.44752483 -5.0365936 61.69293395 -7.65933228 59.80651855 C-9.48723125 57.34346723 -9.38060626 55.71023759 -9.38818359 52.65820312 C-9.39764008 51.56697144 -9.40709656 50.47573975 -9.4168396 49.35144043 C-9.41076691 48.17327759 -9.40469421 46.99511475 -9.3984375 45.78125 C-9.40274277 43.96711609 -9.40274277 43.96711609 -9.40713501 42.11633301 C-9.40917786 39.55753105 -9.40363268 36.99871355 -9.39111328 34.43994141 C-9.37506379 30.51559646 -9.39095562 26.59228153 -9.41015625 22.66796875 C-9.40817386 20.18489355 -9.40433027 17.701819 -9.3984375 15.21875 C-9.40754654 13.45150574 -9.40754654 13.45150574 -9.4168396 11.64855957 C-9.40738312 10.55732788 -9.39792664 9.46609619 -9.38818359 8.34179688 C-9.38579681 7.38043823 -9.38341003 6.41907959 -9.38095093 5.42858887 C-9 3 -9 3 -7.65933228 1.19348145 C-5.0365936 -0.69293395 -3.13267381 -0.44752483 0 0 Z " fill="#0F5D5F" transform="translate(418,661)"/>
<path d="M0 0 C14.693673 -0.20673745 29.2727715 0.42556755 43.9375 1.3125 C45.06753448 1.37902771 46.19756897 1.44555542 47.36184692 1.51409912 C66.06525466 2.61626687 84.73017542 4.00809902 103.39013672 5.68457031 C108.92333934 6.1680613 114.46099888 6.58900576 120 7 C120 8.32 120 9.64 120 11 C110.64111608 11.12961522 101.33920306 10.7297854 92 10.1875 C90.86180817 10.12322311 90.86180817 10.12322311 89.70062256 10.05764771 C74.37603279 9.19217676 59.0635522 8.14995231 43.75390625 7.0534668 C33.62741513 6.33608475 23.50815235 5.74749504 13.36257935 5.370224 C8.50504759 5.17594432 3.79843795 4.78721181 -1 4 C-0.67 2.68 -0.34 1.36 0 0 Z " fill="#1A7B77" transform="translate(239,556)"/>
<path d="M0 0 C1.03833984 -0.00257813 2.07667969 -0.00515625 3.14648438 -0.0078125 C12.85926024 0.11397779 21.27588195 1.46338195 28.3125 8.5 C29.66689668 11.20879335 29.37751451 13.50933268 29.3125 16.5 C27.75 15.26302083 26.1875 14.02604167 24.625 12.7890625 C17.33966099 8.72797825 9.39996135 9.25550691 1.3125 9.375 C-2.6475 9.41625 -6.6075 9.4575 -10.6875 9.5 C-10.6875 18.08 -10.6875 26.66 -10.6875 35.5 C-15.6875 32.5 -15.6875 32.5 -16.6875 31.5 C-17.02543349 27.25829302 -17.01261968 23.00343082 -17.0625 18.75 C-17.09988281 17.55632812 -17.13726562 16.36265625 -17.17578125 15.1328125 C-17.26211898 6.55659787 -17.26211898 6.55659787 -14.89453125 2.203125 C-9.98516701 -0.40404042 -5.47098529 -0.14669309 0 0 Z " fill="#126C6C" transform="translate(499.6875,414.5)"/>
<path d="M0 0 C4.1475412 2.01504982 7.18859871 3.97746465 9.55859375 8.0234375 C9.60816395 9.68936684 9.61376366 11.3576842 9.55859375 13.0234375 C8.9773877 12.66612549 8.39618164 12.30881348 7.79736328 11.94067383 C0.83065657 8.01581692 -4.67603212 7.38727978 -12.56640625 7.7109375 C-17.94953125 7.865625 -17.94953125 7.865625 -23.44140625 8.0234375 C-23.77140625 16.2734375 -24.10140625 24.5234375 -24.44140625 33.0234375 C-27.44140625 32.0234375 -27.44140625 32.0234375 -29.44140625 29.0234375 C-29.90625095 25.08046073 -29.81174416 21.11587449 -29.81640625 17.1484375 C-29.84089844 16.05917969 -29.86539062 14.96992188 -29.890625 13.84765625 C-29.92006895 5.82908788 -29.92006895 5.82908788 -27.54296875 1.828125 C-21.15235594 -3.65972466 -7.67805752 -2.17879044 0 0 Z " fill="#147372" transform="translate(512.44140625,347.9765625)"/>
<path d="M0 0 C12.95124077 4.12183542 25.65319457 8.89944372 38.38330078 13.65185547 C44.31386343 15.86250532 50.25114945 18.05495219 56.1875 20.25 C63.46407751 22.9431641 70.7376386 25.64371867 78 28.375 C83.9849273 30.62574189 89.98415958 32.83327781 96 35 C95.34 36.32 94.68 37.64 94 39 C76.89541674 33.65297138 60.24219273 26.944935 43.52734375 20.5078125 C37.04866562 18.01449707 30.55999549 15.54789353 24.06860352 13.08789062 C22.17125265 12.36884267 20.2740901 11.64929957 18.37695312 10.9296875 C12.25540707 8.60872217 6.13214536 6.29282223 0 4 C0 2.68 0 1.36 0 0 Z " fill="#229690" transform="translate(458,172)"/>
<path d="M0 0 C0.66 0 1.32 0 2 0 C4.43429514 6.9152529 5.52320953 13.11372171 5.4375 20.4375 C5.42920166 21.35692383 5.42090332 22.27634766 5.41235352 23.22363281 C5.13133319 34.51644948 1.83725438 42.75025855 -6 51 C-9.59579146 54.02449749 -9.59579146 54.02449749 -12.0625 53.875 C-14.22031444 52.90050316 -15.37935087 51.69869739 -17 50 C-15.98679687 49.07380859 -15.98679687 49.07380859 -14.953125 48.12890625 C-9.39461375 42.85153357 -5.29989582 38.36216651 -3 31 C-2.64035156 29.97777344 -2.28070312 28.95554687 -1.91015625 27.90234375 C-0.54975642 23.07363628 -0.82366401 18.22428767 -0.9375 13.25 C-0.97193539 11.38028559 -1.00207536 9.51048576 -1.02734375 7.640625 C-1.04531006 6.82110352 -1.06327637 6.00158203 -1.08178711 5.15722656 C-1 3 -1 3 0 0 Z " fill="#147774" transform="translate(561,345)"/>
<path d="M0 0 C0.99 0 1.98 0 3 0 C3.18433594 0.53109375 3.36867188 1.0621875 3.55859375 1.609375 C5.4643472 6.25094341 7.06899352 8.46542081 11.75 10.5 C13.15703223 11.02650238 14.57115941 11.53593211 16 12 C16 12.66 16 13.32 16 14 C15.11248047 14.27650391 15.11248047 14.27650391 14.20703125 14.55859375 C8.05687397 16.81599242 5.60050809 19.27840062 2.77734375 25.171875 C2.52082031 25.77515625 2.26429688 26.3784375 2 27 C0 26 0 26 -1.375 22.625 C-2.99202417 19.01779223 -3.62671547 17.8312116 -7 16 C-8.98014432 15.27648573 -10.97821315 14.59734611 -13 14 C-12.67 12.68 -12.34 11.36 -12 10 C-10.7625 9.835 -9.525 9.67 -8.25 9.5 C-5.44921299 8.83456479 -4.31509867 8.42417129 -2.578125 6.0859375 C-1.60149857 4.08314563 -0.74237771 2.10014746 0 0 Z " fill="#39AAA2" transform="translate(585,161)"/>
<path d="M0 0 C15.04939294 0.54628164 30.00877146 1.57315406 45 3 C45 4.32 45 5.64 45 7 C35.74310552 7.15331625 26.55456205 6.73670011 17.31811523 6.20043945 C14.93819766 6.06254042 12.55801529 5.93029072 10.17773438 5.79882812 C2.10274224 5.34522647 -5.95231705 4.82214058 -14 4 C-14 3.67 -14 3.34 -14 3 C-9.05 3 -4.1 3 1 3 C0.67 2.01 0.34 1.02 0 0 Z " fill="#24807C" transform="translate(314,560)"/>
<path d="M0 0 C0.5775 0.21527344 1.155 0.43054688 1.75 0.65234375 C1.23050781 0.93207031 0.71101563 1.21179688 0.17578125 1.5 C-5.25582789 4.62242226 -9.85117488 8.19720012 -11.79699612 14.39448166 C-12.34864132 17.14399184 -12.3908692 19.7186206 -12.40821838 22.52423096 C-12.4180072 23.72453949 -12.42779602 24.92484802 -12.43788147 26.16152954 C-12.44363693 27.47495331 -12.4493924 28.78837708 -12.45532227 30.14160156 C-12.46490435 31.54119148 -12.47491463 32.94077852 -12.48532104 34.34036255 C-12.51234038 38.13750684 -12.53336602 41.93466353 -12.55332303 45.73185062 C-12.57520092 49.70103777 -12.60258079 53.67018684 -12.62937927 57.63934326 C-12.67928178 65.15445748 -12.72422967 72.66959285 -12.76740164 80.18474841 C-12.81679488 88.74093081 -12.87170527 97.29707502 -12.92708123 105.85322046 C-13.04086379 123.45289275 -13.14771094 141.0526011 -13.25 158.65234375 C-13.58 158.65234375 -13.91 158.65234375 -14.25 158.65234375 C-14.34352238 139.88490299 -14.4140179 121.11750965 -14.45724869 102.34988403 C-14.47785678 93.63535768 -14.50594376 84.92097627 -14.55175781 76.20654297 C-14.59167937 68.60930437 -14.61744556 61.01217078 -14.62635398 53.41483021 C-14.63155976 49.39361888 -14.64375836 45.3727079 -14.67292023 41.35159302 C-14.70017363 37.56275555 -14.70842515 33.77434069 -14.70243073 29.98541451 C-14.70352655 28.59872703 -14.71142154 27.21202468 -14.7268219 25.82542229 C-14.82012246 16.98760826 -14.56445135 10.24487497 -8.25 3.5234375 C-7.59 3.05035156 -6.93 2.57726562 -6.25 2.08984375 C-5.59 1.59355469 -4.93 1.09726562 -4.25 0.5859375 C-2.25 -0.34765625 -2.25 -0.34765625 0 0 Z " fill="#78C1BB" transform="translate(458.25,313.34765625)"/>
<path d="M0 0 C2.43215457 0.3354696 3.80017849 0.83371175 5.69921875 2.4140625 C8.66942196 4.46143517 11.52289497 5.18942301 15 6.125 C16.216875 6.45757812 17.43375 6.79015625 18.6875 7.1328125 C20.3271875 7.56207031 20.3271875 7.56207031 22 8 C22.64356445 8.17635986 23.28712891 8.35271973 23.95019531 8.53442383 C26.03417832 9.00776299 27.97696661 9.20332399 30.109375 9.31640625 C30.86347656 9.35830078 31.61757813 9.40019531 32.39453125 9.44335938 C33.56048828 9.50233398 33.56048828 9.50233398 34.75 9.5625 C35.93916016 9.62727539 35.93916016 9.62727539 37.15234375 9.69335938 C39.10137815 9.79902991 41.05066748 9.89997966 43 10 C43 10.33 43 10.66 43 11 C39.37 11 35.74 11 32 11 C32 11.66 32 12.32 32 13 C21.63380307 13.41962116 10.4644171 13.46954709 1.1875 8.125 C-1 6 -1 6 -1.4375 3.3125 C-1 1 -1 1 0 0 Z " fill="#97CFC6" transform="translate(246,504)"/>
<path d="M0 0 C0.99 0.33 1.98 0.66 3 1 C2.50942373 5.53783051 2.50942373 5.53783051 0.2734375 7.56640625 C-6.62336226 11.91541916 -15.41907586 12.3048131 -23.375 12.8125 C-24.13570801 12.8655127 -24.89641602 12.91852539 -25.68017578 12.97314453 C-30.24185938 13.19706164 -33.69773247 12.76870998 -38 11 C-38 10.67 -38 10.34 -38 10 C-37.39639648 9.93006836 -36.79279297 9.86013672 -36.17089844 9.78808594 C-18.06041342 8.48061829 -18.06041342 8.48061829 -1.8828125 1.3125 C-1.26148438 0.879375 -0.64015625 0.44625 0 0 Z " fill="#8ECBC2" transform="translate(573,504)"/>
<path d="M0 0 C0.99 0.33 1.98 0.66 3 1 C0.71399703 4.65760475 -1.67830581 7.78164589 -4.625 10.9375 C-7.85753699 14.52997687 -9.11441216 17.27686483 -10 22 C-11.98 22 -13.96 22 -16 22 C-16.72750788 20.59308393 -17.43140353 19.17393978 -18.125 17.75 C-18.51945312 16.96109375 -18.91390625 16.1721875 -19.3203125 15.359375 C-20 13 -20 13 -19.1171875 10.703125 C-18.74851562 10.14109375 -18.37984375 9.5790625 -18 9 C-15.03 10.98 -15.03 10.98 -12 13 C-11.7525 12.42636719 -11.505 11.85273437 -11.25 11.26171875 C-9.80910669 8.65460242 -8.12508021 6.89460984 -6 4.8125 C-4.948125 3.77029297 -4.948125 3.77029297 -3.875 2.70703125 C-2 1 -2 1 0 0 Z " fill="#73BBB3" transform="translate(424,536)"/>
<path d="M0 0 C-0.99 0.33 -1.98 0.66 -3 1 C-2.505 2.485 -2.505 2.485 -2 4 C-3.93786085 3.52229477 -5.87527674 3.04278429 -7.8125 2.5625 C-8.89144531 2.29566406 -9.97039062 2.02882813 -11.08203125 1.75390625 C-13.0740843 1.23922588 -15.04811524 0.65062825 -17 0 C-18.55266653 -0.1464714 -20.10995662 -0.24694074 -21.66796875 -0.31640625 C-22.56064453 -0.35830078 -23.45332031 -0.40019531 -24.37304688 -0.44335938 C-25.30181641 -0.48267578 -26.23058594 -0.52199219 -27.1875 -0.5625 C-28.12787109 -0.60568359 -29.06824219 -0.64886719 -30.03710938 -0.69335938 C-32.35792854 -0.79938665 -34.67885325 -0.90145029 -37 -1 C-37 -1.33 -37 -1.66 -37 -2 C-24.79931791 -4.94335521 -11.97968338 -2.92952956 0 0 Z " fill="#41AFA7" transform="translate(433,38)"/>
<path d="M0 0 C0.66 0.33 1.32 0.66 2 1 C0.74896484 2.01707031 0.74896484 2.01707031 -0.52734375 3.0546875 C-17.11828485 16.49315013 -17.11828485 16.49315013 -24 36 C-24.99 35.01 -25.98 34.02 -27 33 C-23.0875474 18.13268012 -12.01348506 8.52188103 0 0 Z " fill="#46B8B1" transform="translate(374,44)"/>
<path d="M0 0 C2.70777129 2.70777129 4.10646344 5.90524732 5.75 9.3125 C6.09160156 9.97701172 6.43320312 10.64152344 6.78515625 11.32617188 C8.36551521 14.61370872 9.16300069 16.39034544 8.203125 19.98046875 C7.80609375 20.64691406 7.4090625 21.31335938 7 22 C4.2159398 18.6355768 2.42825691 14.97175085 0.6875 11 C0.39810547 10.38382812 0.10871094 9.76765625 -0.18945312 9.1328125 C-2.19335798 4.56645718 -2.19335798 4.56645718 -1.16796875 1.5625 C-0.78253906 1.046875 -0.39710938 0.53125 0 0 Z " fill="#187878" transform="translate(304,422)"/>
<path d="M0 0 C0.66 0 1.32 0 2 0 C3.3410005 2.4335567 4.67294856 4.87135301 6 7.3125 C6.57234375 8.34793945 6.57234375 8.34793945 7.15625 9.40429688 C10 14.66015625 10 14.66015625 10 18 C9.01 18.33 8.02 18.66 7 19 C6.67 17.68 6.34 16.36 6 15 C5.34 15 4.68 15 4 15 C3.26793182 13.26965702 2.53596041 11.53927297 1.8046875 9.80859375 C0.99299181 7.90280246 0.99299181 7.90280246 -0.25 5.8125 C-1.20276675 3.50998036 -0.82270808 2.30358264 0 0 Z " fill="#238885" transform="translate(310,346)"/>
<path d="M0 0 C0.99 0.33 1.98 0.66 3 1 C3.26554688 1.81855469 3.53109375 2.63710938 3.8046875 3.48046875 C4.19914063 4.31191406 4.59359375 5.14335938 5 6 C7.85581649 7.04123065 7.85581649 7.04123065 11.125 7.3125 C12.22070312 7.45300781 13.31640625 7.59351563 14.4453125 7.73828125 C15.28835937 7.82464844 16.13140625 7.91101563 17 8 C17 8.33 17 8.66 17 9 C14.69 9 12.38 9 10 9 C9.67 9.99 9.34 10.98 9 12 C5.40800699 11.00222417 4.06608707 10.08216231 1.6875 7.125 C0 4 0 4 0 0 Z " fill="#1F8885" transform="translate(229,547)"/>
<path d="M0 0 C0.66 0 1.32 0 2 0 C2.89429374 1.5725165 3.76487427 3.15853741 4.625 4.75 C5.35589844 6.07257812 5.35589844 6.07257812 6.1015625 7.421875 C7 10 7 10 6.1484375 12.328125 C5.76945313 12.87984375 5.39046875 13.4315625 5 14 C2.0444623 11.24829249 -0.11563315 8.58029701 -2 5 C-2 4.34 -2 3.68 -2 3 C-1.34 3 -0.68 3 0 3 C0 2.01 0 1.02 0 0 Z " fill="#186B6A" transform="translate(197,538)"/>
<path d="M0 0 C-0.61875 0.0825 -1.2375 0.165 -1.875 0.25 C-4.18437567 0.81258459 -4.18437567 0.81258459 -5.25 3.0625 C-5.4975 3.701875 -5.745 4.34125 -6 5 C-6.66 5 -7.32 5 -8 5 C-8 16.55 -8 28.1 -8 40 C-8.33 40 -8.66 40 -9 40 C-9.09897181 34.94634708 -9.17151603 29.89325976 -9.21972656 24.83886719 C-9.23982628 23.12001721 -9.26711089 21.40123548 -9.30175781 19.68261719 C-9.35035034 17.21011511 -9.37298435 14.7385179 -9.390625 12.265625 C-9.41127014 11.49881409 -9.43191528 10.73200317 -9.45318604 9.94195557 C-9.45467554 6.39007248 -9.29058374 4.39229571 -7.14746094 1.49902344 C-4.55829892 -0.30832704 -3.09337179 -0.34370798 0 0 Z " fill="#418081" transform="translate(338,661)"/>
<path d="M0 0 C0 0.33 0 0.66 0 1 C-1.0725 1.28875 -2.145 1.5775 -3.25 1.875 C-7.13029068 2.92236103 -7.13029068 2.92236103 -11 5 C-11 14.57 -11 24.14 -11 34 C-11.33 34 -11.66 34 -12 34 C-12.09907258 29.80084693 -12.17156173 25.60231748 -12.21972656 21.40234375 C-12.23980982 19.97448879 -12.26708252 18.54671575 -12.30175781 17.11914062 C-12.35042669 15.06359632 -12.37299967 13.00914145 -12.390625 10.953125 C-12.41157227 9.71723633 -12.43251953 8.48134766 -12.45410156 7.20800781 C-11.36411413 -0.49222598 -6.46179057 -0.43078604 0 0 Z " fill="#3EA09A" transform="translate(240,514)"/>
<path d="M0 0 C0 0.33 0 0.66 0 1 C-3.96 1.66 -7.92 2.32 -12 3 C-12 3.66 -12 4.32 -12 5 C-11.34 5.66 -10.68 6.32 -10 7 C-12.64 7.99 -15.28 8.98 -18 10 C-18 8 -18 6 -18 4 C-11.74827614 1.13035626 -6.90352555 -0.51137226 0 0 Z " fill="#1C7B78" transform="translate(453,564)"/>
<path d="M0 0 C0.33 0 0.66 0 1 0 C1 11.22 1 22.44 1 34 C0.67 34 0.34 34 0 34 C-0.33 25.42 -0.66 16.84 -1 8 C-1.99 8.495 -1.99 8.495 -3 9 C-2.01 6.03 -1.02 3.06 0 0 Z " fill="#D8F1EE" transform="translate(364,409)"/>
<path d="M0 0 C0.33 0 0.66 0 1 0 C1.12117187 0.92941406 1.24234375 1.85882812 1.3671875 2.81640625 C2.63149852 12.14313138 4.551791 20.23081103 8.29296875 28.86328125 C9 31 9 31 8 33 C2.26364295 22.12070215 -0.25191322 12.3437479 0 0 Z " fill="#1B6C6C" transform="translate(155,526)"/>
<path d="M0 0 C3.53600465 1.91135386 5.78972846 3.62642766 8 7 C6.02 7.99 6.02 7.99 4 9 C2.35 7.68 0.7 6.36 -1 5 C-0.67 3.35 -0.34 1.7 0 0 Z " fill="#7FC2B9" transform="translate(399,538)"/>
<path d="M0 0 C-0.51949219 0.27972656 -1.03898437 0.55945313 -1.57421875 0.84765625 C-8.10773896 4.60352462 -11.96172997 9.09484084 -15 16 C-14.66263804 9.47766875 -13.69382647 6.58714859 -9 2 C-5.50246442 -0.64447812 -4.13234152 -1.26678546 0 0 Z " fill="#4CBCB4" transform="translate(460,314)"/>
<path d="M0 0 C3.41943506 0.42269769 6.72174346 0.91991217 10 2 C11.625 4.625 11.625 4.625 12 7 C10.39402675 6.54803755 8.79027492 6.08817673 7.1875 5.625 C6.29417969 5.36976563 5.40085937 5.11453125 4.48046875 4.8515625 C2 4 2 4 -1 2 C-0.67 1.34 -0.34 0.68 0 0 Z " fill="#1E958F" transform="translate(445,168)"/>
<path d="M0 0 C3.3 0.99 6.6 1.98 10 3 C9.01 4.32 8.02 5.64 7 7 C4.36 6.01 1.72 5.02 -1 4 C-0.67 2.68 -0.34 1.36 0 0 Z " fill="#238E8B" transform="translate(586,219)"/>
<path d="M0 0 C0.99 0.33 1.98 0.66 3 1 C2.3503125 1.5259375 2.3503125 1.5259375 1.6875 2.0625 C-2.30028108 6.64106346 -3.39834495 12.10378049 -4 18 C-4.99 17.01 -5.98 16.02 -7 15 C-5.45454854 9.52067211 -2.84456788 4.88570819 0 0 Z " fill="#39ACA6" transform="translate(354,62)"/>
<path d="M0 0 C5.90322581 5.90322581 5.90322581 5.90322581 6 9 C5.0625 11.75 5.0625 11.75 4 14 C3.67 14 3.34 14 3 14 C2.01 9.38 1.02 4.76 0 0 Z " fill="#218682" transform="translate(556,336)"/>
<path d="M0 0 C0 3 0 3 -2.40625 5.69921875 C-3.4299968 6.70302243 -4.4616054 7.69885649 -5.5 8.6875 C-6.02464844 9.19861328 -6.54929688 9.70972656 -7.08984375 10.23632812 C-8.38660904 11.49772708 -9.69246117 12.74977212 -11 14 C-11.66 13.67 -12.32 13.34 -13 13 C-11.39979779 11.20465118 -9.79509897 9.41370539 -8.1875 7.625 C-7.73568359 7.11710938 -7.28386719 6.60921875 -6.81835938 6.0859375 C-4.64829248 3.67827204 -2.71407209 1.80938139 0 0 Z " fill="#2D9694" transform="translate(189,243)"/>
<path d="M0 0 C6.625 0.75 6.625 0.75 10 3 C9.67 3.99 9.34 4.98 9 6 C5.59687262 4.94124926 2.98646769 3.99097846 0 2 C0 1.34 0 0.68 0 0 Z " fill="#229691" transform="translate(430,39)"/>
<path d="M0 0 C2.32758311 0.93103324 3.74357132 1.65382128 5.25 3.6875 C6.27095909 6.83545718 6.12632947 9.71543368 6 13 C4.43926745 10.65890118 3.13626133 8.43666597 1.875 5.9375 C1.34519531 4.89916016 1.34519531 4.89916016 0.8046875 3.83984375 C0 2 0 2 0 0 Z " fill="#1D7D7B" transform="translate(560,407)"/>
<path d="M0 0 C0.66 0 1.32 0 2 0 C2 1.98 2 3.96 2 6 C0.02 6 -1.96 6 -4 6 C-4 5.01 -4 4.02 -4 3 C-3.01 3 -2.02 3 -1 3 C-0.67 2.01 -0.34 1.02 0 0 Z " fill="#4EADA5" transform="translate(412,552)"/>
<path d="M0 0 C6.625 -0.25 6.625 -0.25 10 2 C7.59454362 3.20272819 6.05003047 3.10071472 3.375 3.0625 C2.14910156 3.04896484 2.14910156 3.04896484 0.8984375 3.03515625 C-0.04128906 3.01775391 -0.04128906 3.01775391 -1 3 C-0.67 2.01 -0.34 1.02 0 0 Z " fill="#0F7070" transform="translate(239,556)"/>
<path d="M0 0 C2.31 1.98 4.62 3.96 7 6 C5.68 6.99 4.36 7.98 3 9 C0.23776722 6.23776722 0.42143709 3.79293383 0 0 Z " fill="#197D7D" transform="translate(367,474)"/>
<path d="M0 0 C0.66 0.33 1.32 0.66 2 1 C1.39671875 1.39832031 0.7934375 1.79664063 0.171875 2.20703125 C-0.62734375 2.73683594 -1.4265625 3.26664062 -2.25 3.8125 C-3.03890625 4.33457031 -3.8278125 4.85664063 -4.640625 5.39453125 C-6.81092481 6.87134122 -8.91413768 8.40689873 -11 10 C-9.64231796 5.11234467 -7.32965579 3.47408902 -3 1 C-2.01 0.67 -1.02 0.34 0 0 Z " fill="#47B7B1" transform="translate(263,313)"/>
<path d="M0 0 C0.66 0.66 1.32 1.32 2 2 C-0.64 1.67 -3.28 1.34 -6 1 C-6.4021875 1.86625 -6.4021875 1.86625 -6.8125 2.75 C-8.01719859 5.0325868 -9.40798115 6.9737942 -11 9 C-10.67470941 6.07238473 -10.40430823 3.67384706 -8.875 1.125 C-5.91504133 -0.6509752 -3.36142192 -0.30558381 0 0 Z " fill="#45A5A1" transform="translate(588,514)"/>
<path d="M0 0 C0 0.33 0 0.66 0 1 C-1.0725 1.28875 -2.145 1.5775 -3.25 1.875 C-7.31329254 3.05629619 -7.31329254 3.05629619 -11 5 C-11.33 5.99 -11.66 6.98 -12 8 C-11.65447612 5.44312331 -11.24912987 3.42498625 -9.9375 1.1875 C-6.75444301 -0.7634059 -3.67569327 -0.1807718 0 0 Z " fill="#46A9A3" transform="translate(240,514)"/>
<path d="M0 0 C2.01136276 2.55991624 3.62845496 5.04590299 5 8 C4.01 8.99 3.02 9.98 2 11 C0.19769832 7.17010894 -0.19622241 4.21878192 0 0 Z " fill="#17797A" transform="translate(250,473)"/>
<path d="M0 0 C2.97 0.495 2.97 0.495 6 1 C6.33 2.65 6.66 4.3 7 6 C4.0625 5.25 4.0625 5.25 1 4 C0.125 1.875 0.125 1.875 0 0 Z " fill="#218E89" transform="translate(573,215)"/>
<path d="M0 0 C1.32 1.65 2.64 3.3 4 5 C3.67 5.66 3.34 6.32 3 7 C1.68 6.67 0.36 6.34 -1 6 C-1.042721 4.33388095 -1.04063832 2.66617115 -1 1 C-0.67 0.67 -0.34 0.34 0 0 Z " fill="#3BABA2" transform="translate(400,320)"/>
<path d="M0 0 C-1.5830577 4.2742558 -4.50568404 6.26531794 -8 9 C-6.68994234 5.06982701 -4.75047804 0 0 0 Z " fill="#D1EBE9" transform="translate(395,83)"/>
<path d="M0 0 C0.99 0.99 1.98 1.98 3 3 C2.34 4.32 1.68 5.64 1 7 C0.01 6.34 -0.98 5.68 -2 5 C-1.34 3.35 -0.68 1.7 0 0 Z " fill="#1B7272" transform="translate(201,545)"/>
<path d="M0 0 C0 3 0 3 -1.875 5.1875 C-4 7 -4 7 -6 7 C-4.60667426 3.63279613 -3.0210714 2.0140476 0 0 Z " fill="#D1ECE8" transform="translate(269,675)"/>
<path d="M0 0 C2.475 0.495 2.475 0.495 5 1 C5.33 1.99 5.66 2.98 6 4 C3.03 3.505 3.03 3.505 0 3 C0 2.01 0 1.02 0 0 Z " fill="#21978D" transform="translate(483,182)"/>
<path d="M0 0 C3.3 0.99 6.6 1.98 10 3 C10 3.33 10 3.66 10 4 C6.7 4 3.4 4 0 4 C0 2.68 0 1.36 0 0 Z " fill="#359D96" transform="translate(472,177)"/>
</svg>
